<?xml version="1.0" encoding="utf-8" standalone="no"?>
<!DOCTYPE svg PUBLIC "-//W3C//DTD SVG 1.1//EN"
  "http://www.w3.org/Graphics/SVG/1.1/DTD/svg11.dtd">
<svg height="504pt" version="1.1" viewBox="0 0 720 504" width="720pt" xmlns="http://www.w3.org/2000/svg" xmlns:xlink="http://www.w3.org/1999/xlink">
 <metadata>
  <rdf:RDF xmlns:cc="http://creativecommons.org/ns#" xmlns:dc="http://purl.org/dc/elements/1.1/" xmlns:rdf="http://www.w3.org/1999/02/22-rdf-syntax-ns#">
   <cc:Work>
    <dc:type rdf:resource="http://purl.org/dc/dcmitype/StillImage"/>
    <dc:date>2021-10-13T07:48:23.769971</dc:date>
    <dc:format>image/svg+xml</dc:format>
    <dc:creator>
     <cc:Agent>
      <dc:title>Matplotlib v3.4.2, https://matplotlib.org/</dc:title>
     </cc:Agent>
    </dc:creator>
   </cc:Work>
  </rdf:RDF>
 </metadata>
 <defs>
  <style type="text/css">*{stroke-linecap:butt;stroke-linejoin:round;}</style>
 </defs>
 <g id="figure_1">
  <g id="patch_1">
   <path d="M 0 504 
L 720 504 
L 720 0 
L 0 0 
z
" style="fill:none;"/>
  </g>
  <g id="axes_1">
   <g id="patch_2">
    <path d="M 90 441 
L 648 441 
L 648 60.48 
L 90 60.48 
z
" style="fill:#ffffff;"/>
   </g>
   <g id="matplotlib.axis_1">
    <g id="xtick_1">
     <g id="line2d_1">
      <defs>
       <path d="M 0 0 
L 0 3.5 
" id="m871b80cfde" style="stroke:#000000;stroke-width:0.8;"/>
      </defs>
      <g>
       <use style="stroke:#000000;stroke-width:0.8;" x="115.363636" xlink:href="#m871b80cfde" y="441"/>
      </g>
     </g>
     <g id="text_1">
      <!-- 0.0 -->
      <g transform="translate(107.412074 455.598437)scale(0.1 -0.1)">
       <defs>
        <path d="M 2034 4250 
Q 1547 4250 1301 3770 
Q 1056 3291 1056 2328 
Q 1056 1369 1301 889 
Q 1547 409 2034 409 
Q 2525 409 2770 889 
Q 3016 1369 3016 2328 
Q 3016 3291 2770 3770 
Q 2525 4250 2034 4250 
z
M 2034 4750 
Q 2819 4750 3233 4129 
Q 3647 3509 3647 2328 
Q 3647 1150 3233 529 
Q 2819 -91 2034 -91 
Q 1250 -91 836 529 
Q 422 1150 422 2328 
Q 422 3509 836 4129 
Q 1250 4750 2034 4750 
z
" id="DejaVuSans-30" transform="scale(0.015625)"/>
        <path d="M 684 794 
L 1344 794 
L 1344 0 
L 684 0 
L 684 794 
z
" id="DejaVuSans-2e" transform="scale(0.015625)"/>
       </defs>
       <use xlink:href="#DejaVuSans-30"/>
       <use x="63.623047" xlink:href="#DejaVuSans-2e"/>
       <use x="95.410156" xlink:href="#DejaVuSans-30"/>
      </g>
     </g>
    </g>
    <g id="xtick_2">
     <g id="line2d_2">
      <g>
       <use style="stroke:#000000;stroke-width:0.8;" x="216.818182" xlink:href="#m871b80cfde" y="441"/>
      </g>
     </g>
     <g id="text_2">
      <!-- 0.2 -->
      <g transform="translate(208.866619 455.598437)scale(0.1 -0.1)">
       <defs>
        <path d="M 1228 531 
L 3431 531 
L 3431 0 
L 469 0 
L 469 531 
Q 828 903 1448 1529 
Q 2069 2156 2228 2338 
Q 2531 2678 2651 2914 
Q 2772 3150 2772 3378 
Q 2772 3750 2511 3984 
Q 2250 4219 1831 4219 
Q 1534 4219 1204 4116 
Q 875 4013 500 3803 
L 500 4441 
Q 881 4594 1212 4672 
Q 1544 4750 1819 4750 
Q 2544 4750 2975 4387 
Q 3406 4025 3406 3419 
Q 3406 3131 3298 2873 
Q 3191 2616 2906 2266 
Q 2828 2175 2409 1742 
Q 1991 1309 1228 531 
z
" id="DejaVuSans-32" transform="scale(0.015625)"/>
       </defs>
       <use xlink:href="#DejaVuSans-30"/>
       <use x="63.623047" xlink:href="#DejaVuSans-2e"/>
       <use x="95.410156" xlink:href="#DejaVuSans-32"/>
      </g>
     </g>
    </g>
    <g id="xtick_3">
     <g id="line2d_3">
      <g>
       <use style="stroke:#000000;stroke-width:0.8;" x="318.272727" xlink:href="#m871b80cfde" y="441"/>
      </g>
     </g>
     <g id="text_3">
      <!-- 0.4 -->
      <g transform="translate(310.321165 455.598437)scale(0.1 -0.1)">
       <defs>
        <path d="M 2419 4116 
L 825 1625 
L 2419 1625 
L 2419 4116 
z
M 2253 4666 
L 3047 4666 
L 3047 1625 
L 3713 1625 
L 3713 1100 
L 3047 1100 
L 3047 0 
L 2419 0 
L 2419 1100 
L 313 1100 
L 313 1709 
L 2253 4666 
z
" id="DejaVuSans-34" transform="scale(0.015625)"/>
       </defs>
       <use xlink:href="#DejaVuSans-30"/>
       <use x="63.623047" xlink:href="#DejaVuSans-2e"/>
       <use x="95.410156" xlink:href="#DejaVuSans-34"/>
      </g>
     </g>
    </g>
    <g id="xtick_4">
     <g id="line2d_4">
      <g>
       <use style="stroke:#000000;stroke-width:0.8;" x="419.727273" xlink:href="#m871b80cfde" y="441"/>
      </g>
     </g>
     <g id="text_4">
      <!-- 0.6 -->
      <g transform="translate(411.77571 455.598437)scale(0.1 -0.1)">
       <defs>
        <path d="M 2113 2584 
Q 1688 2584 1439 2293 
Q 1191 2003 1191 1497 
Q 1191 994 1439 701 
Q 1688 409 2113 409 
Q 2538 409 2786 701 
Q 3034 994 3034 1497 
Q 3034 2003 2786 2293 
Q 2538 2584 2113 2584 
z
M 3366 4563 
L 3366 3988 
Q 3128 4100 2886 4159 
Q 2644 4219 2406 4219 
Q 1781 4219 1451 3797 
Q 1122 3375 1075 2522 
Q 1259 2794 1537 2939 
Q 1816 3084 2150 3084 
Q 2853 3084 3261 2657 
Q 3669 2231 3669 1497 
Q 3669 778 3244 343 
Q 2819 -91 2113 -91 
Q 1303 -91 875 529 
Q 447 1150 447 2328 
Q 447 3434 972 4092 
Q 1497 4750 2381 4750 
Q 2619 4750 2861 4703 
Q 3103 4656 3366 4563 
z
" id="DejaVuSans-36" transform="scale(0.015625)"/>
       </defs>
       <use xlink:href="#DejaVuSans-30"/>
       <use x="63.623047" xlink:href="#DejaVuSans-2e"/>
       <use x="95.410156" xlink:href="#DejaVuSans-36"/>
      </g>
     </g>
    </g>
    <g id="xtick_5">
     <g id="line2d_5">
      <g>
       <use style="stroke:#000000;stroke-width:0.8;" x="521.181818" xlink:href="#m871b80cfde" y="441"/>
      </g>
     </g>
     <g id="text_5">
      <!-- 0.8 -->
      <g transform="translate(513.230256 455.598437)scale(0.1 -0.1)">
       <defs>
        <path d="M 2034 2216 
Q 1584 2216 1326 1975 
Q 1069 1734 1069 1313 
Q 1069 891 1326 650 
Q 1584 409 2034 409 
Q 2484 409 2743 651 
Q 3003 894 3003 1313 
Q 3003 1734 2745 1975 
Q 2488 2216 2034 2216 
z
M 1403 2484 
Q 997 2584 770 2862 
Q 544 3141 544 3541 
Q 544 4100 942 4425 
Q 1341 4750 2034 4750 
Q 2731 4750 3128 4425 
Q 3525 4100 3525 3541 
Q 3525 3141 3298 2862 
Q 3072 2584 2669 2484 
Q 3125 2378 3379 2068 
Q 3634 1759 3634 1313 
Q 3634 634 3220 271 
Q 2806 -91 2034 -91 
Q 1263 -91 848 271 
Q 434 634 434 1313 
Q 434 1759 690 2068 
Q 947 2378 1403 2484 
z
M 1172 3481 
Q 1172 3119 1398 2916 
Q 1625 2713 2034 2713 
Q 2441 2713 2670 2916 
Q 2900 3119 2900 3481 
Q 2900 3844 2670 4047 
Q 2441 4250 2034 4250 
Q 1625 4250 1398 4047 
Q 1172 3844 1172 3481 
z
" id="DejaVuSans-38" transform="scale(0.015625)"/>
       </defs>
       <use xlink:href="#DejaVuSans-30"/>
       <use x="63.623047" xlink:href="#DejaVuSans-2e"/>
       <use x="95.410156" xlink:href="#DejaVuSans-38"/>
      </g>
     </g>
    </g>
    <g id="xtick_6">
     <g id="line2d_6">
      <g>
       <use style="stroke:#000000;stroke-width:0.8;" x="622.636364" xlink:href="#m871b80cfde" y="441"/>
      </g>
     </g>
     <g id="text_6">
      <!-- 1.0 -->
      <g transform="translate(614.684801 455.598437)scale(0.1 -0.1)">
       <defs>
        <path d="M 794 531 
L 1825 531 
L 1825 4091 
L 703 3866 
L 703 4441 
L 1819 4666 
L 2450 4666 
L 2450 531 
L 3481 531 
L 3481 0 
L 794 0 
L 794 531 
z
" id="DejaVuSans-31" transform="scale(0.015625)"/>
       </defs>
       <use xlink:href="#DejaVuSans-31"/>
       <use x="63.623047" xlink:href="#DejaVuSans-2e"/>
       <use x="95.410156" xlink:href="#DejaVuSans-30"/>
      </g>
     </g>
    </g>
   </g>
   <g id="matplotlib.axis_2">
    <g id="ytick_1">
     <g id="line2d_7">
      <defs>
       <path d="M 0 0 
L -3.5 0 
" id="m93603bd0df" style="stroke:#000000;stroke-width:0.8;"/>
      </defs>
      <g>
       <use style="stroke:#000000;stroke-width:0.8;" x="90" xlink:href="#m93603bd0df" y="423.703636"/>
      </g>
     </g>
     <g id="text_7">
      <!-- 0.0 -->
      <g transform="translate(67.096875 427.502855)scale(0.1 -0.1)">
       <use xlink:href="#DejaVuSans-30"/>
       <use x="63.623047" xlink:href="#DejaVuSans-2e"/>
       <use x="95.410156" xlink:href="#DejaVuSans-30"/>
      </g>
     </g>
    </g>
    <g id="ytick_2">
     <g id="line2d_8">
      <g>
       <use style="stroke:#000000;stroke-width:0.8;" x="90" xlink:href="#m93603bd0df" y="354.518182"/>
      </g>
     </g>
     <g id="text_8">
      <!-- 0.2 -->
      <g transform="translate(67.096875 358.317401)scale(0.1 -0.1)">
       <use xlink:href="#DejaVuSans-30"/>
       <use x="63.623047" xlink:href="#DejaVuSans-2e"/>
       <use x="95.410156" xlink:href="#DejaVuSans-32"/>
      </g>
     </g>
    </g>
    <g id="ytick_3">
     <g id="line2d_9">
      <g>
       <use style="stroke:#000000;stroke-width:0.8;" x="90" xlink:href="#m93603bd0df" y="285.332727"/>
      </g>
     </g>
     <g id="text_9">
      <!-- 0.4 -->
      <g transform="translate(67.096875 289.131946)scale(0.1 -0.1)">
       <use xlink:href="#DejaVuSans-30"/>
       <use x="63.623047" xlink:href="#DejaVuSans-2e"/>
       <use x="95.410156" xlink:href="#DejaVuSans-34"/>
      </g>
     </g>
    </g>
    <g id="ytick_4">
     <g id="line2d_10">
      <g>
       <use style="stroke:#000000;stroke-width:0.8;" x="90" xlink:href="#m93603bd0df" y="216.147273"/>
      </g>
     </g>
     <g id="text_10">
      <!-- 0.6 -->
      <g transform="translate(67.096875 219.946491)scale(0.1 -0.1)">
       <use xlink:href="#DejaVuSans-30"/>
       <use x="63.623047" xlink:href="#DejaVuSans-2e"/>
       <use x="95.410156" xlink:href="#DejaVuSans-36"/>
      </g>
     </g>
    </g>
    <g id="ytick_5">
     <g id="line2d_11">
      <g>
       <use style="stroke:#000000;stroke-width:0.8;" x="90" xlink:href="#m93603bd0df" y="146.961818"/>
      </g>
     </g>
     <g id="text_11">
      <!-- 0.8 -->
      <g transform="translate(67.096875 150.761037)scale(0.1 -0.1)">
       <use xlink:href="#DejaVuSans-30"/>
       <use x="63.623047" xlink:href="#DejaVuSans-2e"/>
       <use x="95.410156" xlink:href="#DejaVuSans-38"/>
      </g>
     </g>
    </g>
    <g id="ytick_6">
     <g id="line2d_12">
      <g>
       <use style="stroke:#000000;stroke-width:0.8;" x="90" xlink:href="#m93603bd0df" y="77.776364"/>
      </g>
     </g>
     <g id="text_12">
      <!-- 1.0 -->
      <g transform="translate(67.096875 81.575582)scale(0.1 -0.1)">
       <use xlink:href="#DejaVuSans-31"/>
       <use x="63.623047" xlink:href="#DejaVuSans-2e"/>
       <use x="95.410156" xlink:href="#DejaVuSans-30"/>
      </g>
     </g>
    </g>
   </g>
   <g id="line2d_13">
    <path clip-path="url(#pdf91655df4)" d="M 115.363636 423.703636 
L 116.551629 423.703636 
L 116.551629 420.844733 
L 117.739621 420.844733 
L 117.739621 417.98583 
L 120.115606 417.98583 
L 120.115606 415.126927 
L 123.679583 415.126927 
L 123.679583 412.268024 
L 126.055567 412.268024 
L 126.055567 409.409121 
L 127.24356 409.409121 
L 127.24356 406.550218 
L 128.431552 406.550218 
L 128.431552 403.691315 
L 136.747498 403.691315 
L 136.747498 400.832412 
L 137.935491 400.832412 
L 137.935491 397.973509 
L 142.68746 397.973509 
L 142.68746 395.114606 
L 146.251437 395.114606 
L 146.251437 392.255702 
L 155.755376 392.255702 
L 155.755376 386.537896 
L 166.447307 386.537896 
L 166.447307 383.678993 
L 172.387268 383.678993 
L 172.387268 380.82009 
L 174.763253 380.82009 
L 174.763253 377.961187 
L 187.831169 377.961187 
L 187.831169 375.102284 
L 190.207154 375.102284 
L 190.207154 372.243381 
L 193.771131 372.243381 
L 193.771131 366.525575 
L 196.147115 366.525575 
L 196.147115 363.666672 
L 197.335108 363.666672 
L 197.335108 357.948866 
L 211.591016 357.948866 
L 211.591016 355.089962 
L 212.779008 355.089962 
L 212.779008 349.372156 
L 213.967 349.372156 
L 213.967 346.513253 
L 228.222908 346.513253 
L 228.222908 343.65435 
L 240.102832 343.65435 
L 240.102832 340.795447 
L 243.666809 340.795447 
L 243.666809 335.077641 
L 247.230786 335.077641 
L 247.230786 332.218738 
L 248.418778 332.218738 
L 248.418778 326.500932 
L 269.80264 326.500932 
L 269.80264 317.924222 
L 274.554609 317.924222 
L 274.554609 315.065319 
L 280.494571 315.065319 
L 280.494571 312.206416 
L 281.682563 312.206416 
L 281.682563 309.347513 
L 284.058548 309.347513 
L 284.058548 303.629707 
L 286.434533 303.629707 
L 286.434533 297.911901 
L 288.810517 297.911901 
L 288.810517 292.194095 
L 295.938471 292.194095 
L 295.938471 286.476289 
L 303.066425 286.476289 
L 303.066425 283.617385 
L 310.194379 283.617385 
L 310.194379 275.040676 
L 313.758356 275.040676 
L 313.758356 272.181773 
L 320.88631 272.181773 
L 320.88631 269.32287 
L 326.826272 269.32287 
L 326.826272 260.746161 
L 329.202257 260.746161 
L 329.202257 257.887258 
L 337.518203 257.887258 
L 337.518203 252.169452 
L 344.646157 252.169452 
L 344.646157 243.592742 
L 347.022142 243.592742 
L 347.022142 240.733839 
L 350.586119 240.733839 
L 350.586119 237.874936 
L 352.962103 237.874936 
L 352.962103 235.016033 
L 360.090057 235.016033 
L 360.090057 232.15713 
L 363.654034 232.15713 
L 363.654034 229.298227 
L 368.406004 229.298227 
L 368.406004 226.439324 
L 382.661912 226.439324 
L 382.661912 217.862615 
L 383.849904 217.862615 
L 383.849904 215.003711 
L 393.353843 215.003711 
L 393.353843 212.144808 
L 395.729828 212.144808 
L 395.729828 209.285905 
L 396.91782 209.285905 
L 396.91782 206.427002 
L 401.669789 206.427002 
L 401.669789 200.709196 
L 405.233766 200.709196 
L 405.233766 197.850293 
L 411.173728 197.850293 
L 411.173728 189.273584 
L 417.11369 189.273584 
L 417.11369 186.414681 
L 419.489674 186.414681 
L 419.489674 183.555778 
L 421.865659 183.555778 
L 421.865659 180.696875 
L 423.053651 180.696875 
L 423.053651 177.837971 
L 425.429636 177.837971 
L 425.429636 174.979068 
L 442.061529 174.979068 
L 442.061529 169.261262 
L 444.437513 169.261262 
L 444.437513 163.543456 
L 446.813498 163.543456 
L 446.813498 160.684553 
L 456.317437 160.684553 
L 456.317437 157.82565 
L 465.821375 157.82565 
L 465.821375 154.966747 
L 471.761337 154.966747 
L 471.761337 152.107844 
L 477.701299 152.107844 
L 477.701299 149.248941 
L 486.017245 149.248941 
L 486.017245 146.390038 
L 489.581222 146.390038 
L 489.581222 143.531134 
L 501.461145 143.531134 
L 501.461145 140.672231 
L 506.213115 140.672231 
L 506.213115 137.813328 
L 509.777092 137.813328 
L 509.777092 134.954425 
L 513.341069 134.954425 
L 513.341069 129.236619 
L 532.348946 129.236619 
L 532.348946 126.377716 
L 538.288908 126.377716 
L 538.288908 123.518813 
L 543.040877 123.518813 
L 543.040877 120.65991 
L 545.416862 120.65991 
L 545.416862 117.801007 
L 548.980839 117.801007 
L 548.980839 114.942104 
L 552.544816 114.942104 
L 552.544816 112.083201 
L 558.484778 112.083201 
L 558.484778 103.506491 
L 566.800724 103.506491 
L 566.800724 100.647588 
L 581.056632 100.647588 
L 581.056632 97.788685 
L 588.184586 97.788685 
L 588.184586 94.929782 
L 601.252502 94.929782 
L 601.252502 86.353073 
L 606.004471 86.353073 
L 606.004471 83.49417 
L 608.380456 83.49417 
L 608.380456 77.776364 
L 622.636364 77.776364 
L 622.636364 77.776364 
" style="fill:none;stroke:#1f77b4;stroke-linecap:square;stroke-width:1.5;"/>
   </g>
   <g id="line2d_14">
    <path clip-path="url(#pdf91655df4)" d="M 115.363636 423.703636 
L 124.867575 423.703636 
L 124.867575 415.126927 
L 135.559506 415.126927 
L 135.559506 412.268024 
L 136.747498 412.268024 
L 136.747498 409.409121 
L 143.875452 409.409121 
L 143.875452 406.550218 
L 145.063445 406.550218 
L 145.063445 403.691315 
L 146.251437 403.691315 
L 146.251437 400.832412 
L 148.627422 400.832412 
L 148.627422 395.114606 
L 151.003406 395.114606 
L 151.003406 392.255702 
L 181.891207 392.255702 
L 181.891207 389.396799 
L 192.583138 389.396799 
L 192.583138 386.537896 
L 194.959123 386.537896 
L 194.959123 383.678993 
L 199.711092 383.678993 
L 199.711092 377.961187 
L 203.275069 377.961187 
L 203.275069 369.384478 
L 208.027039 369.384478 
L 208.027039 366.525575 
L 210.403023 366.525575 
L 210.403023 363.666672 
L 222.282947 363.666672 
L 222.282947 360.807769 
L 228.222908 360.807769 
L 228.222908 357.948866 
L 238.914839 357.948866 
L 238.914839 355.089962 
L 248.418778 355.089962 
L 248.418778 352.231059 
L 249.60677 352.231059 
L 249.60677 349.372156 
L 259.110709 349.372156 
L 259.110709 346.513253 
L 274.554609 346.513253 
L 274.554609 343.65435 
L 300.690441 343.65435 
L 300.690441 340.795447 
L 310.194379 340.795447 
L 310.194379 337.936544 
L 316.134341 337.936544 
L 316.134341 335.077641 
L 323.262295 335.077641 
L 323.262295 332.218738 
L 324.450287 332.218738 
L 324.450287 329.359835 
L 330.390249 329.359835 
L 330.390249 326.500932 
L 336.330211 326.500932 
L 336.330211 323.642029 
L 337.518203 323.642029 
L 337.518203 317.924222 
L 343.458165 317.924222 
L 343.458165 315.065319 
L 345.834149 315.065319 
L 345.834149 300.770804 
L 357.714073 300.770804 
L 357.714073 297.911901 
L 366.030019 297.911901 
L 366.030019 295.052998 
L 369.593996 295.052998 
L 369.593996 292.194095 
L 370.781989 292.194095 
L 370.781989 289.335192 
L 373.157973 289.335192 
L 373.157973 286.476289 
L 382.661912 286.476289 
L 382.661912 283.617385 
L 386.225889 283.617385 
L 386.225889 280.758482 
L 395.729828 280.758482 
L 395.729828 275.040676 
L 404.045774 275.040676 
L 404.045774 272.181773 
L 405.233766 272.181773 
L 405.233766 269.32287 
L 412.36172 269.32287 
L 412.36172 266.463967 
L 413.549713 266.463967 
L 413.549713 263.605064 
L 419.489674 263.605064 
L 419.489674 260.746161 
L 421.865659 260.746161 
L 421.865659 243.592742 
L 426.617628 243.592742 
L 426.617628 240.733839 
L 427.805621 240.733839 
L 427.805621 237.874936 
L 431.369598 237.874936 
L 431.369598 235.016033 
L 438.497552 235.016033 
L 438.497552 226.439324 
L 446.813498 226.439324 
L 446.813498 220.721518 
L 448.00149 220.721518 
L 448.00149 217.862615 
L 455.129444 217.862615 
L 455.129444 215.003711 
L 462.257398 215.003711 
L 462.257398 212.144808 
L 476.513306 212.144808 
L 476.513306 206.427002 
L 478.889291 206.427002 
L 478.889291 203.568099 
L 483.64126 203.568099 
L 483.64126 200.709196 
L 484.829253 200.709196 
L 484.829253 197.850293 
L 486.017245 197.850293 
L 486.017245 194.99139 
L 494.333191 194.99139 
L 494.333191 192.132487 
L 500.273153 192.132487 
L 500.273153 189.273584 
L 501.461145 189.273584 
L 501.461145 186.414681 
L 508.589099 186.414681 
L 508.589099 180.696875 
L 514.529061 180.696875 
L 514.529061 177.837971 
L 518.093038 177.837971 
L 518.093038 169.261262 
L 533.536938 169.261262 
L 533.536938 163.543456 
L 537.100915 163.543456 
L 537.100915 160.684553 
L 540.664892 160.684553 
L 540.664892 157.82565 
L 541.852885 157.82565 
L 541.852885 154.966747 
L 557.296785 154.966747 
L 557.296785 152.107844 
L 558.484778 152.107844 
L 558.484778 149.248941 
L 564.424739 149.248941 
L 564.424739 146.390038 
L 565.612732 146.390038 
L 565.612732 143.531134 
L 566.800724 143.531134 
L 566.800724 140.672231 
L 573.928678 140.672231 
L 573.928678 137.813328 
L 577.492655 137.813328 
L 577.492655 132.095522 
L 586.996594 132.095522 
L 586.996594 129.236619 
L 589.372578 129.236619 
L 589.372578 126.377716 
L 590.560571 126.377716 
L 590.560571 123.518813 
L 591.748563 123.518813 
L 591.748563 117.801007 
L 594.124548 117.801007 
L 594.124548 112.083201 
L 598.876517 112.083201 
L 598.876517 109.224298 
L 600.064509 109.224298 
L 600.064509 106.365394 
L 601.252502 106.365394 
L 601.252502 103.506491 
L 604.816479 103.506491 
L 604.816479 100.647588 
L 609.568448 100.647588 
L 609.568448 97.788685 
L 610.75644 97.788685 
L 610.75644 94.929782 
L 613.132425 94.929782 
L 613.132425 92.070879 
L 614.320417 92.070879 
L 614.320417 89.211976 
L 615.50841 89.211976 
L 615.50841 80.635267 
L 619.072387 80.635267 
L 619.072387 77.776364 
L 622.636364 77.776364 
L 622.636364 77.776364 
" style="fill:none;stroke:#ff7f0e;stroke-linecap:square;stroke-width:1.5;"/>
   </g>
   <g id="line2d_15">
    <path clip-path="url(#pdf91655df4)" d="M 115.363636 423.703636 
L 122.49159 423.703636 
L 122.49159 420.844733 
L 124.867575 420.844733 
L 124.867575 417.98583 
L 127.24356 417.98583 
L 127.24356 415.126927 
L 128.431552 415.126927 
L 128.431552 409.409121 
L 140.311475 409.409121 
L 140.311475 406.550218 
L 148.627422 406.550218 
L 148.627422 403.691315 
L 152.191399 403.691315 
L 152.191399 400.832412 
L 158.13136 400.832412 
L 158.13136 397.973509 
L 164.071322 397.973509 
L 164.071322 392.255702 
L 165.259314 392.255702 
L 165.259314 389.396799 
L 167.635299 389.396799 
L 167.635299 386.537896 
L 172.387268 386.537896 
L 172.387268 377.961187 
L 183.079199 377.961187 
L 183.079199 372.243381 
L 192.583138 372.243381 
L 192.583138 369.384478 
L 193.771131 369.384478 
L 193.771131 366.525575 
L 194.959123 366.525575 
L 194.959123 363.666672 
L 196.147115 363.666672 
L 196.147115 357.948866 
L 209.215031 357.948866 
L 209.215031 349.372156 
L 213.967 349.372156 
L 213.967 346.513253 
L 217.530977 346.513253 
L 217.530977 343.65435 
L 218.71897 343.65435 
L 218.71897 337.936544 
L 224.658931 337.936544 
L 224.658931 335.077641 
L 227.034916 335.077641 
L 227.034916 332.218738 
L 232.974878 332.218738 
L 232.974878 329.359835 
L 235.350862 329.359835 
L 235.350862 326.500932 
L 236.538855 326.500932 
L 236.538855 317.924222 
L 238.914839 317.924222 
L 238.914839 315.065319 
L 243.666809 315.065319 
L 243.666809 312.206416 
L 246.042793 312.206416 
L 246.042793 309.347513 
L 256.734724 309.347513 
L 256.734724 303.629707 
L 269.80264 303.629707 
L 269.80264 300.770804 
L 274.554609 300.770804 
L 274.554609 297.911901 
L 276.930594 297.911901 
L 276.930594 295.052998 
L 281.682563 295.052998 
L 281.682563 292.194095 
L 287.622525 292.194095 
L 287.622525 286.476289 
L 291.186502 286.476289 
L 291.186502 283.617385 
L 297.126464 283.617385 
L 297.126464 280.758482 
L 300.690441 280.758482 
L 300.690441 277.899579 
L 307.818395 277.899579 
L 307.818395 275.040676 
L 309.006387 275.040676 
L 309.006387 272.181773 
L 311.382372 272.181773 
L 311.382372 269.32287 
L 314.946349 269.32287 
L 314.946349 266.463967 
L 319.698318 266.463967 
L 319.698318 263.605064 
L 320.88631 263.605064 
L 320.88631 260.746161 
L 322.074303 260.746161 
L 322.074303 257.887258 
L 325.63828 257.887258 
L 325.63828 255.028355 
L 331.578241 255.028355 
L 331.578241 246.451645 
L 339.894188 246.451645 
L 339.894188 243.592742 
L 341.08218 243.592742 
L 341.08218 240.733839 
L 344.646157 240.733839 
L 344.646157 237.874936 
L 356.52608 237.874936 
L 356.52608 232.15713 
L 373.157973 232.15713 
L 373.157973 229.298227 
L 375.533958 229.298227 
L 375.533958 226.439324 
L 382.661912 226.439324 
L 382.661912 223.580421 
L 385.037897 223.580421 
L 385.037897 220.721518 
L 388.601874 220.721518 
L 388.601874 217.862615 
L 393.353843 217.862615 
L 393.353843 212.144808 
L 401.669789 212.144808 
L 401.669789 209.285905 
L 408.797743 209.285905 
L 408.797743 206.427002 
L 412.36172 206.427002 
L 412.36172 203.568099 
L 414.737705 203.568099 
L 414.737705 197.850293 
L 430.181605 197.850293 
L 430.181605 194.99139 
L 434.933575 194.99139 
L 434.933575 192.132487 
L 444.437513 192.132487 
L 444.437513 189.273584 
L 449.189483 189.273584 
L 449.189483 186.414681 
L 451.565467 186.414681 
L 451.565467 180.696875 
L 453.941452 180.696875 
L 453.941452 177.837971 
L 461.069406 177.837971 
L 461.069406 174.979068 
L 468.19736 174.979068 
L 468.19736 172.120165 
L 471.761337 172.120165 
L 471.761337 169.261262 
L 475.325314 169.261262 
L 475.325314 163.543456 
L 478.889291 163.543456 
L 478.889291 160.684553 
L 480.077283 160.684553 
L 480.077283 157.82565 
L 482.453268 157.82565 
L 482.453268 154.966747 
L 484.829253 154.966747 
L 484.829253 152.107844 
L 486.017245 152.107844 
L 486.017245 146.390038 
L 488.39323 146.390038 
L 488.39323 143.531134 
L 502.649138 143.531134 
L 502.649138 140.672231 
L 503.83713 140.672231 
L 503.83713 137.813328 
L 506.213115 137.813328 
L 506.213115 134.954425 
L 507.401107 134.954425 
L 507.401107 129.236619 
L 518.093038 129.236619 
L 518.093038 126.377716 
L 526.408984 126.377716 
L 526.408984 123.518813 
L 527.596977 123.518813 
L 527.596977 120.65991 
L 552.544816 120.65991 
L 552.544816 117.801007 
L 558.484778 117.801007 
L 558.484778 114.942104 
L 563.236747 114.942104 
L 563.236747 112.083201 
L 564.424739 112.083201 
L 564.424739 109.224298 
L 565.612732 109.224298 
L 565.612732 106.365394 
L 579.86864 106.365394 
L 579.86864 103.506491 
L 581.056632 103.506491 
L 581.056632 92.070879 
L 588.184586 92.070879 
L 588.184586 89.211976 
L 595.31254 89.211976 
L 595.31254 83.49417 
L 600.064509 83.49417 
L 600.064509 80.635267 
L 615.50841 80.635267 
L 615.50841 77.776364 
L 622.636364 77.776364 
L 622.636364 77.776364 
" style="fill:none;stroke:#2ca02c;stroke-linecap:square;stroke-width:1.5;"/>
   </g>
   <g id="line2d_16">
    <path clip-path="url(#pdf91655df4)" d="M 115.363636 423.703636 
L 116.551629 423.703636 
L 116.551629 420.844733 
L 117.739621 420.844733 
L 117.739621 415.126927 
L 130.807537 415.126927 
L 130.807537 412.268024 
L 133.183521 412.268024 
L 133.183521 409.409121 
L 140.311475 409.409121 
L 140.311475 406.550218 
L 145.063445 406.550218 
L 145.063445 403.691315 
L 149.815414 403.691315 
L 149.815414 400.832412 
L 160.507345 400.832412 
L 160.507345 397.973509 
L 166.447307 397.973509 
L 166.447307 395.114606 
L 167.635299 395.114606 
L 167.635299 392.255702 
L 168.823291 392.255702 
L 168.823291 389.396799 
L 175.951245 389.396799 
L 175.951245 386.537896 
L 177.139238 386.537896 
L 177.139238 380.82009 
L 181.891207 380.82009 
L 181.891207 377.961187 
L 183.079199 377.961187 
L 183.079199 375.102284 
L 191.395146 375.102284 
L 191.395146 372.243381 
L 198.5231 372.243381 
L 198.5231 369.384478 
L 199.711092 369.384478 
L 199.711092 366.525575 
L 202.087077 366.525575 
L 202.087077 363.666672 
L 212.779008 363.666672 
L 212.779008 360.807769 
L 217.530977 360.807769 
L 217.530977 357.948866 
L 219.906962 357.948866 
L 219.906962 355.089962 
L 227.034916 355.089962 
L 227.034916 349.372156 
L 231.786885 349.372156 
L 231.786885 340.795447 
L 237.726847 340.795447 
L 237.726847 337.936544 
L 244.854801 337.936544 
L 244.854801 335.077641 
L 246.042793 335.077641 
L 246.042793 332.218738 
L 249.60677 332.218738 
L 249.60677 329.359835 
L 267.426655 329.359835 
L 267.426655 320.783125 
L 269.80264 320.783125 
L 269.80264 317.924222 
L 274.554609 317.924222 
L 274.554609 315.065319 
L 275.742602 315.065319 
L 275.742602 306.48861 
L 299.502448 306.48861 
L 299.502448 303.629707 
L 301.878433 303.629707 
L 301.878433 300.770804 
L 304.254418 300.770804 
L 304.254418 295.052998 
L 306.630402 295.052998 
L 306.630402 292.194095 
L 309.006387 292.194095 
L 309.006387 289.335192 
L 311.382372 289.335192 
L 311.382372 283.617385 
L 318.510326 283.617385 
L 318.510326 277.899579 
L 325.63828 277.899579 
L 325.63828 275.040676 
L 328.014264 275.040676 
L 328.014264 272.181773 
L 329.202257 272.181773 
L 329.202257 269.32287 
L 347.022142 269.32287 
L 347.022142 263.605064 
L 352.962103 263.605064 
L 352.962103 257.887258 
L 355.338088 257.887258 
L 355.338088 255.028355 
L 356.52608 255.028355 
L 356.52608 249.310548 
L 363.654034 249.310548 
L 363.654034 246.451645 
L 364.842027 246.451645 
L 364.842027 243.592742 
L 377.909943 243.592742 
L 377.909943 240.733839 
L 379.097935 240.733839 
L 379.097935 237.874936 
L 382.661912 237.874936 
L 382.661912 232.15713 
L 386.225889 232.15713 
L 386.225889 229.298227 
L 393.353843 229.298227 
L 393.353843 223.580421 
L 396.91782 223.580421 
L 396.91782 217.862615 
L 400.481797 217.862615 
L 400.481797 212.144808 
L 402.857782 212.144808 
L 402.857782 209.285905 
L 406.421759 209.285905 
L 406.421759 206.427002 
L 414.737705 206.427002 
L 414.737705 203.568099 
L 419.489674 203.568099 
L 419.489674 200.709196 
L 421.865659 200.709196 
L 421.865659 197.850293 
L 424.241644 197.850293 
L 424.241644 194.99139 
L 436.121567 194.99139 
L 436.121567 192.132487 
L 437.309559 192.132487 
L 437.309559 189.273584 
L 442.061529 189.273584 
L 442.061529 186.414681 
L 444.437513 186.414681 
L 444.437513 183.555778 
L 446.813498 183.555778 
L 446.813498 180.696875 
L 448.00149 180.696875 
L 448.00149 174.979068 
L 457.505429 174.979068 
L 457.505429 172.120165 
L 467.009368 172.120165 
L 467.009368 169.261262 
L 469.385352 169.261262 
L 469.385352 166.402359 
L 470.573345 166.402359 
L 470.573345 163.543456 
L 481.265276 163.543456 
L 481.265276 160.684553 
L 499.085161 160.684553 
L 499.085161 157.82565 
L 500.273153 157.82565 
L 500.273153 154.966747 
L 503.83713 154.966747 
L 503.83713 149.248941 
L 509.777092 149.248941 
L 509.777092 146.390038 
L 510.965084 146.390038 
L 510.965084 140.672231 
L 525.220992 140.672231 
L 525.220992 137.813328 
L 527.596977 137.813328 
L 527.596977 134.954425 
L 528.784969 134.954425 
L 528.784969 132.095522 
L 532.348946 132.095522 
L 532.348946 129.236619 
L 533.536938 129.236619 
L 533.536938 126.377716 
L 550.168831 126.377716 
L 550.168831 120.65991 
L 551.356824 120.65991 
L 551.356824 117.801007 
L 554.920801 117.801007 
L 554.920801 114.942104 
L 558.484778 114.942104 
L 558.484778 112.083201 
L 570.364701 112.083201 
L 570.364701 109.224298 
L 585.808601 109.224298 
L 585.808601 106.365394 
L 586.996594 106.365394 
L 586.996594 103.506491 
L 589.372578 103.506491 
L 589.372578 100.647588 
L 591.748563 100.647588 
L 591.748563 97.788685 
L 592.936555 97.788685 
L 592.936555 92.070879 
L 606.004471 92.070879 
L 606.004471 89.211976 
L 607.192463 89.211976 
L 607.192463 86.353073 
L 614.320417 86.353073 
L 614.320417 83.49417 
L 620.260379 83.49417 
L 620.260379 80.635267 
L 621.448371 80.635267 
L 621.448371 77.776364 
L 622.636364 77.776364 
L 622.636364 77.776364 
" style="fill:none;stroke:#d62728;stroke-linecap:square;stroke-width:1.5;"/>
   </g>
   <g id="line2d_17">
    <path clip-path="url(#pdf91655df4)" d="M 115.363636 423.703636 
L 116.551629 423.703636 
L 116.551629 412.268024 
L 117.739621 412.268024 
L 117.739621 400.832412 
L 118.927613 400.832412 
L 118.927613 397.973509 
L 123.679583 397.973509 
L 123.679583 395.114606 
L 124.867575 395.114606 
L 124.867575 386.537896 
L 131.995529 386.537896 
L 131.995529 380.82009 
L 134.371514 380.82009 
L 134.371514 375.102284 
L 137.935491 375.102284 
L 137.935491 369.384478 
L 139.123483 369.384478 
L 139.123483 363.666672 
L 140.311475 363.666672 
L 140.311475 360.807769 
L 142.68746 360.807769 
L 142.68746 357.948866 
L 151.003406 357.948866 
L 151.003406 355.089962 
L 153.379391 355.089962 
L 153.379391 352.231059 
L 158.13136 352.231059 
L 158.13136 349.372156 
L 160.507345 349.372156 
L 160.507345 346.513253 
L 164.071322 346.513253 
L 164.071322 343.65435 
L 168.823291 343.65435 
L 168.823291 337.936544 
L 175.951245 337.936544 
L 175.951245 332.218738 
L 178.32723 332.218738 
L 178.32723 329.359835 
L 179.515222 329.359835 
L 179.515222 323.642029 
L 187.831169 323.642029 
L 187.831169 320.783125 
L 193.771131 320.783125 
L 193.771131 317.924222 
L 194.959123 317.924222 
L 194.959123 309.347513 
L 197.335108 309.347513 
L 197.335108 300.770804 
L 203.275069 300.770804 
L 203.275069 297.911901 
L 205.651054 297.911901 
L 205.651054 292.194095 
L 206.839046 292.194095 
L 206.839046 286.476289 
L 218.71897 286.476289 
L 218.71897 283.617385 
L 219.906962 283.617385 
L 219.906962 275.040676 
L 221.094954 275.040676 
L 221.094954 272.181773 
L 223.470939 272.181773 
L 223.470939 269.32287 
L 225.846924 269.32287 
L 225.846924 266.463967 
L 227.034916 266.463967 
L 227.034916 263.605064 
L 228.222908 263.605064 
L 228.222908 260.746161 
L 234.16287 260.746161 
L 234.16287 255.028355 
L 243.666809 255.028355 
L 243.666809 252.169452 
L 249.60677 252.169452 
L 249.60677 249.310548 
L 250.794763 249.310548 
L 250.794763 246.451645 
L 251.982755 246.451645 
L 251.982755 243.592742 
L 255.546732 243.592742 
L 255.546732 240.733839 
L 256.734724 240.733839 
L 256.734724 237.874936 
L 259.110709 237.874936 
L 259.110709 235.016033 
L 261.486694 235.016033 
L 261.486694 232.15713 
L 262.674686 232.15713 
L 262.674686 229.298227 
L 272.178625 229.298227 
L 272.178625 226.439324 
L 274.554609 226.439324 
L 274.554609 223.580421 
L 284.058548 223.580421 
L 284.058548 220.721518 
L 287.622525 220.721518 
L 287.622525 217.862615 
L 289.99851 217.862615 
L 289.99851 215.003711 
L 291.186502 215.003711 
L 291.186502 212.144808 
L 292.374494 212.144808 
L 292.374494 209.285905 
L 295.938471 209.285905 
L 295.938471 206.427002 
L 301.878433 206.427002 
L 301.878433 200.709196 
L 309.006387 200.709196 
L 309.006387 197.850293 
L 310.194379 197.850293 
L 310.194379 194.99139 
L 311.382372 194.99139 
L 311.382372 192.132487 
L 318.510326 192.132487 
L 318.510326 189.273584 
L 328.014264 189.273584 
L 328.014264 186.414681 
L 341.08218 186.414681 
L 341.08218 180.696875 
L 342.270172 180.696875 
L 342.270172 177.837971 
L 344.646157 177.837971 
L 344.646157 174.979068 
L 368.406004 174.979068 
L 368.406004 172.120165 
L 370.781989 172.120165 
L 370.781989 169.261262 
L 373.157973 169.261262 
L 373.157973 166.402359 
L 379.097935 166.402359 
L 379.097935 163.543456 
L 386.225889 163.543456 
L 386.225889 160.684553 
L 392.165851 160.684553 
L 392.165851 157.82565 
L 400.481797 157.82565 
L 400.481797 154.966747 
L 404.045774 154.966747 
L 404.045774 152.107844 
L 412.36172 152.107844 
L 412.36172 149.248941 
L 421.865659 149.248941 
L 421.865659 146.390038 
L 430.181605 146.390038 
L 430.181605 143.531134 
L 437.309559 143.531134 
L 437.309559 140.672231 
L 445.625506 140.672231 
L 445.625506 137.813328 
L 462.257398 137.813328 
L 462.257398 134.954425 
L 465.821375 134.954425 
L 465.821375 129.236619 
L 469.385352 129.236619 
L 469.385352 126.377716 
L 472.949329 126.377716 
L 472.949329 123.518813 
L 474.137322 123.518813 
L 474.137322 120.65991 
L 475.325314 120.65991 
L 475.325314 117.801007 
L 483.64126 117.801007 
L 483.64126 114.942104 
L 487.205237 114.942104 
L 487.205237 112.083201 
L 489.581222 112.083201 
L 489.581222 109.224298 
L 501.461145 109.224298 
L 501.461145 106.365394 
L 519.28103 106.365394 
L 519.28103 103.506491 
L 525.220992 103.506491 
L 525.220992 100.647588 
L 540.664892 100.647588 
L 540.664892 97.788685 
L 566.800724 97.788685 
L 566.800724 94.929782 
L 573.928678 94.929782 
L 573.928678 92.070879 
L 576.304663 92.070879 
L 576.304663 86.353073 
L 604.816479 86.353073 
L 604.816479 83.49417 
L 613.132425 83.49417 
L 613.132425 80.635267 
L 617.884394 80.635267 
L 617.884394 77.776364 
L 622.636364 77.776364 
L 622.636364 77.776364 
" style="fill:none;stroke:#9467bd;stroke-linecap:square;stroke-width:1.5;"/>
   </g>
   <g id="line2d_18">
    <path clip-path="url(#pdf91655df4)" d="M 115.363636 423.703636 
L 116.551629 423.703636 
L 116.551629 420.844733 
L 124.867575 420.844733 
L 124.867575 417.98583 
L 129.619544 417.98583 
L 129.619544 415.126927 
L 133.183521 415.126927 
L 133.183521 409.409121 
L 136.747498 409.409121 
L 136.747498 400.832412 
L 143.875452 400.832412 
L 143.875452 397.973509 
L 146.251437 397.973509 
L 146.251437 395.114606 
L 152.191399 395.114606 
L 152.191399 392.255702 
L 155.755376 392.255702 
L 155.755376 389.396799 
L 156.943368 389.396799 
L 156.943368 383.678993 
L 162.88333 383.678993 
L 162.88333 380.82009 
L 165.259314 380.82009 
L 165.259314 377.961187 
L 172.387268 377.961187 
L 172.387268 372.243381 
L 177.139238 372.243381 
L 177.139238 369.384478 
L 187.831169 369.384478 
L 187.831169 366.525575 
L 197.335108 366.525575 
L 197.335108 363.666672 
L 198.5231 363.666672 
L 198.5231 360.807769 
L 199.711092 360.807769 
L 199.711092 357.948866 
L 200.899085 357.948866 
L 200.899085 355.089962 
L 204.463062 355.089962 
L 204.463062 352.231059 
L 206.839046 352.231059 
L 206.839046 346.513253 
L 216.342985 346.513253 
L 216.342985 343.65435 
L 225.846924 343.65435 
L 225.846924 340.795447 
L 230.598893 340.795447 
L 230.598893 337.936544 
L 257.922717 337.936544 
L 257.922717 335.077641 
L 262.674686 335.077641 
L 262.674686 332.218738 
L 267.426655 332.218738 
L 267.426655 329.359835 
L 272.178625 329.359835 
L 272.178625 326.500932 
L 273.366617 326.500932 
L 273.366617 323.642029 
L 281.682563 323.642029 
L 281.682563 320.783125 
L 287.622525 320.783125 
L 287.622525 315.065319 
L 293.562487 315.065319 
L 293.562487 306.48861 
L 297.126464 306.48861 
L 297.126464 300.770804 
L 299.502448 300.770804 
L 299.502448 297.911901 
L 307.818395 297.911901 
L 307.818395 292.194095 
L 310.194379 292.194095 
L 310.194379 289.335192 
L 313.758356 289.335192 
L 313.758356 286.476289 
L 326.826272 286.476289 
L 326.826272 280.758482 
L 335.142218 280.758482 
L 335.142218 277.899579 
L 337.518203 277.899579 
L 337.518203 272.181773 
L 342.270172 272.181773 
L 342.270172 269.32287 
L 363.654034 269.32287 
L 363.654034 266.463967 
L 364.842027 266.463967 
L 364.842027 263.605064 
L 370.781989 263.605064 
L 370.781989 257.887258 
L 381.47392 257.887258 
L 381.47392 252.169452 
L 383.849904 252.169452 
L 383.849904 240.733839 
L 385.037897 240.733839 
L 385.037897 235.016033 
L 387.413881 235.016033 
L 387.413881 232.15713 
L 388.601874 232.15713 
L 388.601874 226.439324 
L 394.541835 226.439324 
L 394.541835 223.580421 
L 396.91782 223.580421 
L 396.91782 220.721518 
L 400.481797 220.721518 
L 400.481797 217.862615 
L 411.173728 217.862615 
L 411.173728 215.003711 
L 421.865659 215.003711 
L 421.865659 212.144808 
L 425.429636 212.144808 
L 425.429636 209.285905 
L 433.745582 209.285905 
L 433.745582 206.427002 
L 436.121567 206.427002 
L 436.121567 203.568099 
L 439.685544 203.568099 
L 439.685544 197.850293 
L 443.249521 197.850293 
L 443.249521 192.132487 
L 446.813498 192.132487 
L 446.813498 189.273584 
L 450.377475 189.273584 
L 450.377475 186.414681 
L 451.565467 186.414681 
L 451.565467 183.555778 
L 452.75346 183.555778 
L 452.75346 180.696875 
L 455.129444 180.696875 
L 455.129444 177.837971 
L 457.505429 177.837971 
L 457.505429 172.120165 
L 464.633383 172.120165 
L 464.633383 166.402359 
L 465.821375 166.402359 
L 465.821375 163.543456 
L 470.573345 163.543456 
L 470.573345 160.684553 
L 472.949329 160.684553 
L 472.949329 157.82565 
L 478.889291 157.82565 
L 478.889291 154.966747 
L 482.453268 154.966747 
L 482.453268 152.107844 
L 484.829253 152.107844 
L 484.829253 149.248941 
L 494.333191 149.248941 
L 494.333191 143.531134 
L 502.649138 143.531134 
L 502.649138 140.672231 
L 513.341069 140.672231 
L 513.341069 137.813328 
L 515.717053 137.813328 
L 515.717053 134.954425 
L 518.093038 134.954425 
L 518.093038 132.095522 
L 520.469023 132.095522 
L 520.469023 129.236619 
L 522.845007 129.236619 
L 522.845007 126.377716 
L 524.033 126.377716 
L 524.033 123.518813 
L 525.220992 123.518813 
L 525.220992 120.65991 
L 541.852885 120.65991 
L 541.852885 117.801007 
L 545.416862 117.801007 
L 545.416862 114.942104 
L 551.356824 114.942104 
L 551.356824 112.083201 
L 553.732808 112.083201 
L 553.732808 106.365394 
L 576.304663 106.365394 
L 576.304663 103.506491 
L 579.86864 103.506491 
L 579.86864 100.647588 
L 581.056632 100.647588 
L 581.056632 94.929782 
L 598.876517 94.929782 
L 598.876517 92.070879 
L 600.064509 92.070879 
L 600.064509 89.211976 
L 603.628486 89.211976 
L 603.628486 86.353073 
L 607.192463 86.353073 
L 607.192463 83.49417 
L 610.75644 83.49417 
L 610.75644 80.635267 
L 617.884394 80.635267 
L 617.884394 77.776364 
L 622.636364 77.776364 
L 622.636364 77.776364 
" style="fill:none;stroke:#8c564b;stroke-linecap:square;stroke-width:1.5;"/>
   </g>
   <g id="patch_3">
    <path d="M 90 441 
L 90 60.48 
" style="fill:none;stroke:#000000;stroke-linecap:square;stroke-linejoin:miter;stroke-width:0.8;"/>
   </g>
   <g id="patch_4">
    <path d="M 648 441 
L 648 60.48 
" style="fill:none;stroke:#000000;stroke-linecap:square;stroke-linejoin:miter;stroke-width:0.8;"/>
   </g>
   <g id="patch_5">
    <path d="M 90 441 
L 648 441 
" style="fill:none;stroke:#000000;stroke-linecap:square;stroke-linejoin:miter;stroke-width:0.8;"/>
   </g>
   <g id="patch_6">
    <path d="M 90 60.48 
L 648 60.48 
" style="fill:none;stroke:#000000;stroke-linecap:square;stroke-linejoin:miter;stroke-width:0.8;"/>
   </g>
   <g id="legend_1">
    <g id="patch_7">
     <path d="M 97 156.54875 
L 256.151563 156.54875 
Q 258.151563 156.54875 258.151563 154.54875 
L 258.151563 67.48 
Q 258.151563 65.48 256.151563 65.48 
L 97 65.48 
Q 95 65.48 95 67.48 
L 95 154.54875 
Q 95 156.54875 97 156.54875 
z
" style="fill:#ffffff;opacity:0.8;stroke:#cccccc;stroke-linejoin:miter;"/>
    </g>
    <g id="line2d_19">
     <path d="M 99 73.578438 
L 119 73.578438 
" style="fill:none;stroke:#1f77b4;stroke-linecap:square;stroke-width:1.5;"/>
    </g>
    <g id="line2d_20"/>
    <g id="text_13">
     <!-- Smina Score -->
     <g transform="translate(127 77.078438)scale(0.1 -0.1)">
      <defs>
       <path d="M 3425 4513 
L 3425 3897 
Q 3066 4069 2747 4153 
Q 2428 4238 2131 4238 
Q 1616 4238 1336 4038 
Q 1056 3838 1056 3469 
Q 1056 3159 1242 3001 
Q 1428 2844 1947 2747 
L 2328 2669 
Q 3034 2534 3370 2195 
Q 3706 1856 3706 1288 
Q 3706 609 3251 259 
Q 2797 -91 1919 -91 
Q 1588 -91 1214 -16 
Q 841 59 441 206 
L 441 856 
Q 825 641 1194 531 
Q 1563 422 1919 422 
Q 2459 422 2753 634 
Q 3047 847 3047 1241 
Q 3047 1584 2836 1778 
Q 2625 1972 2144 2069 
L 1759 2144 
Q 1053 2284 737 2584 
Q 422 2884 422 3419 
Q 422 4038 858 4394 
Q 1294 4750 2059 4750 
Q 2388 4750 2728 4690 
Q 3069 4631 3425 4513 
z
" id="DejaVuSans-53" transform="scale(0.015625)"/>
       <path d="M 3328 2828 
Q 3544 3216 3844 3400 
Q 4144 3584 4550 3584 
Q 5097 3584 5394 3201 
Q 5691 2819 5691 2113 
L 5691 0 
L 5113 0 
L 5113 2094 
Q 5113 2597 4934 2840 
Q 4756 3084 4391 3084 
Q 3944 3084 3684 2787 
Q 3425 2491 3425 1978 
L 3425 0 
L 2847 0 
L 2847 2094 
Q 2847 2600 2669 2842 
Q 2491 3084 2119 3084 
Q 1678 3084 1418 2786 
Q 1159 2488 1159 1978 
L 1159 0 
L 581 0 
L 581 3500 
L 1159 3500 
L 1159 2956 
Q 1356 3278 1631 3431 
Q 1906 3584 2284 3584 
Q 2666 3584 2933 3390 
Q 3200 3197 3328 2828 
z
" id="DejaVuSans-6d" transform="scale(0.015625)"/>
       <path d="M 603 3500 
L 1178 3500 
L 1178 0 
L 603 0 
L 603 3500 
z
M 603 4863 
L 1178 4863 
L 1178 4134 
L 603 4134 
L 603 4863 
z
" id="DejaVuSans-69" transform="scale(0.015625)"/>
       <path d="M 3513 2113 
L 3513 0 
L 2938 0 
L 2938 2094 
Q 2938 2591 2744 2837 
Q 2550 3084 2163 3084 
Q 1697 3084 1428 2787 
Q 1159 2491 1159 1978 
L 1159 0 
L 581 0 
L 581 3500 
L 1159 3500 
L 1159 2956 
Q 1366 3272 1645 3428 
Q 1925 3584 2291 3584 
Q 2894 3584 3203 3211 
Q 3513 2838 3513 2113 
z
" id="DejaVuSans-6e" transform="scale(0.015625)"/>
       <path d="M 2194 1759 
Q 1497 1759 1228 1600 
Q 959 1441 959 1056 
Q 959 750 1161 570 
Q 1363 391 1709 391 
Q 2188 391 2477 730 
Q 2766 1069 2766 1631 
L 2766 1759 
L 2194 1759 
z
M 3341 1997 
L 3341 0 
L 2766 0 
L 2766 531 
Q 2569 213 2275 61 
Q 1981 -91 1556 -91 
Q 1019 -91 701 211 
Q 384 513 384 1019 
Q 384 1609 779 1909 
Q 1175 2209 1959 2209 
L 2766 2209 
L 2766 2266 
Q 2766 2663 2505 2880 
Q 2244 3097 1772 3097 
Q 1472 3097 1187 3025 
Q 903 2953 641 2809 
L 641 3341 
Q 956 3463 1253 3523 
Q 1550 3584 1831 3584 
Q 2591 3584 2966 3190 
Q 3341 2797 3341 1997 
z
" id="DejaVuSans-61" transform="scale(0.015625)"/>
       <path id="DejaVuSans-20" transform="scale(0.015625)"/>
       <path d="M 3122 3366 
L 3122 2828 
Q 2878 2963 2633 3030 
Q 2388 3097 2138 3097 
Q 1578 3097 1268 2742 
Q 959 2388 959 1747 
Q 959 1106 1268 751 
Q 1578 397 2138 397 
Q 2388 397 2633 464 
Q 2878 531 3122 666 
L 3122 134 
Q 2881 22 2623 -34 
Q 2366 -91 2075 -91 
Q 1284 -91 818 406 
Q 353 903 353 1747 
Q 353 2603 823 3093 
Q 1294 3584 2113 3584 
Q 2378 3584 2631 3529 
Q 2884 3475 3122 3366 
z
" id="DejaVuSans-63" transform="scale(0.015625)"/>
       <path d="M 1959 3097 
Q 1497 3097 1228 2736 
Q 959 2375 959 1747 
Q 959 1119 1226 758 
Q 1494 397 1959 397 
Q 2419 397 2687 759 
Q 2956 1122 2956 1747 
Q 2956 2369 2687 2733 
Q 2419 3097 1959 3097 
z
M 1959 3584 
Q 2709 3584 3137 3096 
Q 3566 2609 3566 1747 
Q 3566 888 3137 398 
Q 2709 -91 1959 -91 
Q 1206 -91 779 398 
Q 353 888 353 1747 
Q 353 2609 779 3096 
Q 1206 3584 1959 3584 
z
" id="DejaVuSans-6f" transform="scale(0.015625)"/>
       <path d="M 2631 2963 
Q 2534 3019 2420 3045 
Q 2306 3072 2169 3072 
Q 1681 3072 1420 2755 
Q 1159 2438 1159 1844 
L 1159 0 
L 581 0 
L 581 3500 
L 1159 3500 
L 1159 2956 
Q 1341 3275 1631 3429 
Q 1922 3584 2338 3584 
Q 2397 3584 2469 3576 
Q 2541 3569 2628 3553 
L 2631 2963 
z
" id="DejaVuSans-72" transform="scale(0.015625)"/>
       <path d="M 3597 1894 
L 3597 1613 
L 953 1613 
Q 991 1019 1311 708 
Q 1631 397 2203 397 
Q 2534 397 2845 478 
Q 3156 559 3463 722 
L 3463 178 
Q 3153 47 2828 -22 
Q 2503 -91 2169 -91 
Q 1331 -91 842 396 
Q 353 884 353 1716 
Q 353 2575 817 3079 
Q 1281 3584 2069 3584 
Q 2775 3584 3186 3129 
Q 3597 2675 3597 1894 
z
M 3022 2063 
Q 3016 2534 2758 2815 
Q 2500 3097 2075 3097 
Q 1594 3097 1305 2825 
Q 1016 2553 972 2059 
L 3022 2063 
z
" id="DejaVuSans-65" transform="scale(0.015625)"/>
      </defs>
      <use xlink:href="#DejaVuSans-53"/>
      <use x="63.476562" xlink:href="#DejaVuSans-6d"/>
      <use x="160.888672" xlink:href="#DejaVuSans-69"/>
      <use x="188.671875" xlink:href="#DejaVuSans-6e"/>
      <use x="252.050781" xlink:href="#DejaVuSans-61"/>
      <use x="313.330078" xlink:href="#DejaVuSans-20"/>
      <use x="345.117188" xlink:href="#DejaVuSans-53"/>
      <use x="408.59375" xlink:href="#DejaVuSans-63"/>
      <use x="463.574219" xlink:href="#DejaVuSans-6f"/>
      <use x="524.755859" xlink:href="#DejaVuSans-72"/>
      <use x="563.619141" xlink:href="#DejaVuSans-65"/>
     </g>
    </g>
    <g id="line2d_21">
     <path d="M 99 88.256563 
L 119 88.256563 
" style="fill:none;stroke:#ff7f0e;stroke-linecap:square;stroke-width:1.5;"/>
    </g>
    <g id="line2d_22"/>
    <g id="text_14">
     <!-- RFScore -->
     <g transform="translate(127 91.756563)scale(0.1 -0.1)">
      <defs>
       <path d="M 2841 2188 
Q 3044 2119 3236 1894 
Q 3428 1669 3622 1275 
L 4263 0 
L 3584 0 
L 2988 1197 
Q 2756 1666 2539 1819 
Q 2322 1972 1947 1972 
L 1259 1972 
L 1259 0 
L 628 0 
L 628 4666 
L 2053 4666 
Q 2853 4666 3247 4331 
Q 3641 3997 3641 3322 
Q 3641 2881 3436 2590 
Q 3231 2300 2841 2188 
z
M 1259 4147 
L 1259 2491 
L 2053 2491 
Q 2509 2491 2742 2702 
Q 2975 2913 2975 3322 
Q 2975 3731 2742 3939 
Q 2509 4147 2053 4147 
L 1259 4147 
z
" id="DejaVuSans-52" transform="scale(0.015625)"/>
       <path d="M 628 4666 
L 3309 4666 
L 3309 4134 
L 1259 4134 
L 1259 2759 
L 3109 2759 
L 3109 2228 
L 1259 2228 
L 1259 0 
L 628 0 
L 628 4666 
z
" id="DejaVuSans-46" transform="scale(0.015625)"/>
      </defs>
      <use xlink:href="#DejaVuSans-52"/>
      <use x="69.482422" xlink:href="#DejaVuSans-46"/>
      <use x="125.251953" xlink:href="#DejaVuSans-53"/>
      <use x="188.728516" xlink:href="#DejaVuSans-63"/>
      <use x="243.708984" xlink:href="#DejaVuSans-6f"/>
      <use x="304.890625" xlink:href="#DejaVuSans-72"/>
      <use x="343.753906" xlink:href="#DejaVuSans-65"/>
     </g>
    </g>
    <g id="line2d_23">
     <path d="M 99 102.934688 
L 119 102.934688 
" style="fill:none;stroke:#2ca02c;stroke-linecap:square;stroke-width:1.5;"/>
    </g>
    <g id="line2d_24"/>
    <g id="text_15">
     <!-- PLECScore -->
     <g transform="translate(127 106.434688)scale(0.1 -0.1)">
      <defs>
       <path d="M 1259 4147 
L 1259 2394 
L 2053 2394 
Q 2494 2394 2734 2622 
Q 2975 2850 2975 3272 
Q 2975 3691 2734 3919 
Q 2494 4147 2053 4147 
L 1259 4147 
z
M 628 4666 
L 2053 4666 
Q 2838 4666 3239 4311 
Q 3641 3956 3641 3272 
Q 3641 2581 3239 2228 
Q 2838 1875 2053 1875 
L 1259 1875 
L 1259 0 
L 628 0 
L 628 4666 
z
" id="DejaVuSans-50" transform="scale(0.015625)"/>
       <path d="M 628 4666 
L 1259 4666 
L 1259 531 
L 3531 531 
L 3531 0 
L 628 0 
L 628 4666 
z
" id="DejaVuSans-4c" transform="scale(0.015625)"/>
       <path d="M 628 4666 
L 3578 4666 
L 3578 4134 
L 1259 4134 
L 1259 2753 
L 3481 2753 
L 3481 2222 
L 1259 2222 
L 1259 531 
L 3634 531 
L 3634 0 
L 628 0 
L 628 4666 
z
" id="DejaVuSans-45" transform="scale(0.015625)"/>
       <path d="M 4122 4306 
L 4122 3641 
Q 3803 3938 3442 4084 
Q 3081 4231 2675 4231 
Q 1875 4231 1450 3742 
Q 1025 3253 1025 2328 
Q 1025 1406 1450 917 
Q 1875 428 2675 428 
Q 3081 428 3442 575 
Q 3803 722 4122 1019 
L 4122 359 
Q 3791 134 3420 21 
Q 3050 -91 2638 -91 
Q 1578 -91 968 557 
Q 359 1206 359 2328 
Q 359 3453 968 4101 
Q 1578 4750 2638 4750 
Q 3056 4750 3426 4639 
Q 3797 4528 4122 4306 
z
" id="DejaVuSans-43" transform="scale(0.015625)"/>
      </defs>
      <use xlink:href="#DejaVuSans-50"/>
      <use x="60.302734" xlink:href="#DejaVuSans-4c"/>
      <use x="116.015625" xlink:href="#DejaVuSans-45"/>
      <use x="179.199219" xlink:href="#DejaVuSans-43"/>
      <use x="249.023438" xlink:href="#DejaVuSans-53"/>
      <use x="312.5" xlink:href="#DejaVuSans-63"/>
      <use x="367.480469" xlink:href="#DejaVuSans-6f"/>
      <use x="428.662109" xlink:href="#DejaVuSans-72"/>
      <use x="467.525391" xlink:href="#DejaVuSans-65"/>
     </g>
    </g>
    <g id="line2d_25">
     <path d="M 99 117.612813 
L 119 117.612813 
" style="fill:none;stroke:#d62728;stroke-linecap:square;stroke-width:1.5;"/>
    </g>
    <g id="line2d_26"/>
    <g id="text_16">
     <!-- NNSCore -->
     <g transform="translate(127 121.112813)scale(0.1 -0.1)">
      <defs>
       <path d="M 628 4666 
L 1478 4666 
L 3547 763 
L 3547 4666 
L 4159 4666 
L 4159 0 
L 3309 0 
L 1241 3903 
L 1241 0 
L 628 0 
L 628 4666 
z
" id="DejaVuSans-4e" transform="scale(0.015625)"/>
      </defs>
      <use xlink:href="#DejaVuSans-4e"/>
      <use x="74.804688" xlink:href="#DejaVuSans-4e"/>
      <use x="149.609375" xlink:href="#DejaVuSans-53"/>
      <use x="213.085938" xlink:href="#DejaVuSans-43"/>
      <use x="282.910156" xlink:href="#DejaVuSans-6f"/>
      <use x="344.091797" xlink:href="#DejaVuSans-72"/>
      <use x="382.955078" xlink:href="#DejaVuSans-65"/>
     </g>
    </g>
    <g id="line2d_27">
     <path d="M 99 132.290938 
L 119 132.290938 
" style="fill:none;stroke:#9467bd;stroke-linecap:square;stroke-width:1.5;"/>
    </g>
    <g id="line2d_28"/>
    <g id="text_17">
     <!-- Feature Map Vector score -->
     <g transform="translate(127 135.790938)scale(0.1 -0.1)">
      <defs>
       <path d="M 1172 4494 
L 1172 3500 
L 2356 3500 
L 2356 3053 
L 1172 3053 
L 1172 1153 
Q 1172 725 1289 603 
Q 1406 481 1766 481 
L 2356 481 
L 2356 0 
L 1766 0 
Q 1100 0 847 248 
Q 594 497 594 1153 
L 594 3053 
L 172 3053 
L 172 3500 
L 594 3500 
L 594 4494 
L 1172 4494 
z
" id="DejaVuSans-74" transform="scale(0.015625)"/>
       <path d="M 544 1381 
L 544 3500 
L 1119 3500 
L 1119 1403 
Q 1119 906 1312 657 
Q 1506 409 1894 409 
Q 2359 409 2629 706 
Q 2900 1003 2900 1516 
L 2900 3500 
L 3475 3500 
L 3475 0 
L 2900 0 
L 2900 538 
Q 2691 219 2414 64 
Q 2138 -91 1772 -91 
Q 1169 -91 856 284 
Q 544 659 544 1381 
z
M 1991 3584 
L 1991 3584 
z
" id="DejaVuSans-75" transform="scale(0.015625)"/>
       <path d="M 628 4666 
L 1569 4666 
L 2759 1491 
L 3956 4666 
L 4897 4666 
L 4897 0 
L 4281 0 
L 4281 4097 
L 3078 897 
L 2444 897 
L 1241 4097 
L 1241 0 
L 628 0 
L 628 4666 
z
" id="DejaVuSans-4d" transform="scale(0.015625)"/>
       <path d="M 1159 525 
L 1159 -1331 
L 581 -1331 
L 581 3500 
L 1159 3500 
L 1159 2969 
Q 1341 3281 1617 3432 
Q 1894 3584 2278 3584 
Q 2916 3584 3314 3078 
Q 3713 2572 3713 1747 
Q 3713 922 3314 415 
Q 2916 -91 2278 -91 
Q 1894 -91 1617 61 
Q 1341 213 1159 525 
z
M 3116 1747 
Q 3116 2381 2855 2742 
Q 2594 3103 2138 3103 
Q 1681 3103 1420 2742 
Q 1159 2381 1159 1747 
Q 1159 1113 1420 752 
Q 1681 391 2138 391 
Q 2594 391 2855 752 
Q 3116 1113 3116 1747 
z
" id="DejaVuSans-70" transform="scale(0.015625)"/>
       <path d="M 1831 0 
L 50 4666 
L 709 4666 
L 2188 738 
L 3669 4666 
L 4325 4666 
L 2547 0 
L 1831 0 
z
" id="DejaVuSans-56" transform="scale(0.015625)"/>
       <path d="M 2834 3397 
L 2834 2853 
Q 2591 2978 2328 3040 
Q 2066 3103 1784 3103 
Q 1356 3103 1142 2972 
Q 928 2841 928 2578 
Q 928 2378 1081 2264 
Q 1234 2150 1697 2047 
L 1894 2003 
Q 2506 1872 2764 1633 
Q 3022 1394 3022 966 
Q 3022 478 2636 193 
Q 2250 -91 1575 -91 
Q 1294 -91 989 -36 
Q 684 19 347 128 
L 347 722 
Q 666 556 975 473 
Q 1284 391 1588 391 
Q 1994 391 2212 530 
Q 2431 669 2431 922 
Q 2431 1156 2273 1281 
Q 2116 1406 1581 1522 
L 1381 1569 
Q 847 1681 609 1914 
Q 372 2147 372 2553 
Q 372 3047 722 3315 
Q 1072 3584 1716 3584 
Q 2034 3584 2315 3537 
Q 2597 3491 2834 3397 
z
" id="DejaVuSans-73" transform="scale(0.015625)"/>
      </defs>
      <use xlink:href="#DejaVuSans-46"/>
      <use x="52.019531" xlink:href="#DejaVuSans-65"/>
      <use x="113.542969" xlink:href="#DejaVuSans-61"/>
      <use x="174.822266" xlink:href="#DejaVuSans-74"/>
      <use x="214.03125" xlink:href="#DejaVuSans-75"/>
      <use x="277.410156" xlink:href="#DejaVuSans-72"/>
      <use x="316.273438" xlink:href="#DejaVuSans-65"/>
      <use x="377.796875" xlink:href="#DejaVuSans-20"/>
      <use x="409.583984" xlink:href="#DejaVuSans-4d"/>
      <use x="495.863281" xlink:href="#DejaVuSans-61"/>
      <use x="557.142578" xlink:href="#DejaVuSans-70"/>
      <use x="620.619141" xlink:href="#DejaVuSans-20"/>
      <use x="652.40625" xlink:href="#DejaVuSans-56"/>
      <use x="713.064453" xlink:href="#DejaVuSans-65"/>
      <use x="774.587891" xlink:href="#DejaVuSans-63"/>
      <use x="829.568359" xlink:href="#DejaVuSans-74"/>
      <use x="868.777344" xlink:href="#DejaVuSans-6f"/>
      <use x="929.958984" xlink:href="#DejaVuSans-72"/>
      <use x="971.072266" xlink:href="#DejaVuSans-20"/>
      <use x="1002.859375" xlink:href="#DejaVuSans-73"/>
      <use x="1054.958984" xlink:href="#DejaVuSans-63"/>
      <use x="1109.939453" xlink:href="#DejaVuSans-6f"/>
      <use x="1171.121094" xlink:href="#DejaVuSans-72"/>
      <use x="1209.984375" xlink:href="#DejaVuSans-65"/>
     </g>
    </g>
    <g id="line2d_29">
     <path d="M 99 146.969063 
L 119 146.969063 
" style="fill:none;stroke:#8c564b;stroke-linecap:square;stroke-width:1.5;"/>
    </g>
    <g id="line2d_30"/>
    <g id="text_18">
     <!-- RF Score VS -->
     <g transform="translate(127 150.469063)scale(0.1 -0.1)">
      <use xlink:href="#DejaVuSans-52"/>
      <use x="69.482422" xlink:href="#DejaVuSans-46"/>
      <use x="127.001953" xlink:href="#DejaVuSans-20"/>
      <use x="158.789062" xlink:href="#DejaVuSans-53"/>
      <use x="222.265625" xlink:href="#DejaVuSans-63"/>
      <use x="277.246094" xlink:href="#DejaVuSans-6f"/>
      <use x="338.427734" xlink:href="#DejaVuSans-72"/>
      <use x="377.291016" xlink:href="#DejaVuSans-65"/>
      <use x="438.814453" xlink:href="#DejaVuSans-20"/>
      <use x="470.601562" xlink:href="#DejaVuSans-56"/>
      <use x="539.009766" xlink:href="#DejaVuSans-53"/>
     </g>
    </g>
   </g>
  </g>
 </g>
 <defs>
  <clipPath id="pdf91655df4">
   <rect height="380.52" width="558" x="90" y="60.48"/>
  </clipPath>
 </defs>
</svg>
