<?xml version="1.0" encoding="utf-8" standalone="no"?>
<!DOCTYPE svg PUBLIC "-//W3C//DTD SVG 1.1//EN"
  "http://www.w3.org/Graphics/SVG/1.1/DTD/svg11.dtd">
<svg height="504pt" version="1.1" viewBox="0 0 720 504" width="720pt" xmlns="http://www.w3.org/2000/svg" xmlns:xlink="http://www.w3.org/1999/xlink">
 <metadata>
  <rdf:RDF xmlns:cc="http://creativecommons.org/ns#" xmlns:dc="http://purl.org/dc/elements/1.1/" xmlns:rdf="http://www.w3.org/1999/02/22-rdf-syntax-ns#">
   <cc:Work>
    <dc:type rdf:resource="http://purl.org/dc/dcmitype/StillImage"/>
    <dc:date>2021-10-13T05:44:33.789022</dc:date>
    <dc:format>image/svg+xml</dc:format>
    <dc:creator>
     <cc:Agent>
      <dc:title>Matplotlib v3.4.2, https://matplotlib.org/</dc:title>
     </cc:Agent>
    </dc:creator>
   </cc:Work>
  </rdf:RDF>
 </metadata>
 <defs>
  <style type="text/css">*{stroke-linecap:butt;stroke-linejoin:round;}</style>
 </defs>
 <g id="figure_1">
  <g id="patch_1">
   <path d="M 0 504 
L 720 504 
L 720 0 
L 0 0 
z
" style="fill:none;"/>
  </g>
  <g id="axes_1">
   <g id="patch_2">
    <path d="M 90 441 
L 648 441 
L 648 60.48 
L 90 60.48 
z
" style="fill:#ffffff;"/>
   </g>
   <g id="matplotlib.axis_1">
    <g id="xtick_1">
     <g id="line2d_1">
      <defs>
       <path d="M 0 0 
L 0 3.5 
" id="mab541bb316" style="stroke:#000000;stroke-width:0.8;"/>
      </defs>
      <g>
       <use style="stroke:#000000;stroke-width:0.8;" x="115.363636" xlink:href="#mab541bb316" y="441"/>
      </g>
     </g>
     <g id="text_1">
      <!-- 0.0 -->
      <g transform="translate(107.412074 455.598437)scale(0.1 -0.1)">
       <defs>
        <path d="M 2034 4250 
Q 1547 4250 1301 3770 
Q 1056 3291 1056 2328 
Q 1056 1369 1301 889 
Q 1547 409 2034 409 
Q 2525 409 2770 889 
Q 3016 1369 3016 2328 
Q 3016 3291 2770 3770 
Q 2525 4250 2034 4250 
z
M 2034 4750 
Q 2819 4750 3233 4129 
Q 3647 3509 3647 2328 
Q 3647 1150 3233 529 
Q 2819 -91 2034 -91 
Q 1250 -91 836 529 
Q 422 1150 422 2328 
Q 422 3509 836 4129 
Q 1250 4750 2034 4750 
z
" id="DejaVuSans-30" transform="scale(0.015625)"/>
        <path d="M 684 794 
L 1344 794 
L 1344 0 
L 684 0 
L 684 794 
z
" id="DejaVuSans-2e" transform="scale(0.015625)"/>
       </defs>
       <use xlink:href="#DejaVuSans-30"/>
       <use x="63.623047" xlink:href="#DejaVuSans-2e"/>
       <use x="95.410156" xlink:href="#DejaVuSans-30"/>
      </g>
     </g>
    </g>
    <g id="xtick_2">
     <g id="line2d_2">
      <g>
       <use style="stroke:#000000;stroke-width:0.8;" x="216.818182" xlink:href="#mab541bb316" y="441"/>
      </g>
     </g>
     <g id="text_2">
      <!-- 0.2 -->
      <g transform="translate(208.866619 455.598437)scale(0.1 -0.1)">
       <defs>
        <path d="M 1228 531 
L 3431 531 
L 3431 0 
L 469 0 
L 469 531 
Q 828 903 1448 1529 
Q 2069 2156 2228 2338 
Q 2531 2678 2651 2914 
Q 2772 3150 2772 3378 
Q 2772 3750 2511 3984 
Q 2250 4219 1831 4219 
Q 1534 4219 1204 4116 
Q 875 4013 500 3803 
L 500 4441 
Q 881 4594 1212 4672 
Q 1544 4750 1819 4750 
Q 2544 4750 2975 4387 
Q 3406 4025 3406 3419 
Q 3406 3131 3298 2873 
Q 3191 2616 2906 2266 
Q 2828 2175 2409 1742 
Q 1991 1309 1228 531 
z
" id="DejaVuSans-32" transform="scale(0.015625)"/>
       </defs>
       <use xlink:href="#DejaVuSans-30"/>
       <use x="63.623047" xlink:href="#DejaVuSans-2e"/>
       <use x="95.410156" xlink:href="#DejaVuSans-32"/>
      </g>
     </g>
    </g>
    <g id="xtick_3">
     <g id="line2d_3">
      <g>
       <use style="stroke:#000000;stroke-width:0.8;" x="318.272727" xlink:href="#mab541bb316" y="441"/>
      </g>
     </g>
     <g id="text_3">
      <!-- 0.4 -->
      <g transform="translate(310.321165 455.598437)scale(0.1 -0.1)">
       <defs>
        <path d="M 2419 4116 
L 825 1625 
L 2419 1625 
L 2419 4116 
z
M 2253 4666 
L 3047 4666 
L 3047 1625 
L 3713 1625 
L 3713 1100 
L 3047 1100 
L 3047 0 
L 2419 0 
L 2419 1100 
L 313 1100 
L 313 1709 
L 2253 4666 
z
" id="DejaVuSans-34" transform="scale(0.015625)"/>
       </defs>
       <use xlink:href="#DejaVuSans-30"/>
       <use x="63.623047" xlink:href="#DejaVuSans-2e"/>
       <use x="95.410156" xlink:href="#DejaVuSans-34"/>
      </g>
     </g>
    </g>
    <g id="xtick_4">
     <g id="line2d_4">
      <g>
       <use style="stroke:#000000;stroke-width:0.8;" x="419.727273" xlink:href="#mab541bb316" y="441"/>
      </g>
     </g>
     <g id="text_4">
      <!-- 0.6 -->
      <g transform="translate(411.77571 455.598437)scale(0.1 -0.1)">
       <defs>
        <path d="M 2113 2584 
Q 1688 2584 1439 2293 
Q 1191 2003 1191 1497 
Q 1191 994 1439 701 
Q 1688 409 2113 409 
Q 2538 409 2786 701 
Q 3034 994 3034 1497 
Q 3034 2003 2786 2293 
Q 2538 2584 2113 2584 
z
M 3366 4563 
L 3366 3988 
Q 3128 4100 2886 4159 
Q 2644 4219 2406 4219 
Q 1781 4219 1451 3797 
Q 1122 3375 1075 2522 
Q 1259 2794 1537 2939 
Q 1816 3084 2150 3084 
Q 2853 3084 3261 2657 
Q 3669 2231 3669 1497 
Q 3669 778 3244 343 
Q 2819 -91 2113 -91 
Q 1303 -91 875 529 
Q 447 1150 447 2328 
Q 447 3434 972 4092 
Q 1497 4750 2381 4750 
Q 2619 4750 2861 4703 
Q 3103 4656 3366 4563 
z
" id="DejaVuSans-36" transform="scale(0.015625)"/>
       </defs>
       <use xlink:href="#DejaVuSans-30"/>
       <use x="63.623047" xlink:href="#DejaVuSans-2e"/>
       <use x="95.410156" xlink:href="#DejaVuSans-36"/>
      </g>
     </g>
    </g>
    <g id="xtick_5">
     <g id="line2d_5">
      <g>
       <use style="stroke:#000000;stroke-width:0.8;" x="521.181818" xlink:href="#mab541bb316" y="441"/>
      </g>
     </g>
     <g id="text_5">
      <!-- 0.8 -->
      <g transform="translate(513.230256 455.598437)scale(0.1 -0.1)">
       <defs>
        <path d="M 2034 2216 
Q 1584 2216 1326 1975 
Q 1069 1734 1069 1313 
Q 1069 891 1326 650 
Q 1584 409 2034 409 
Q 2484 409 2743 651 
Q 3003 894 3003 1313 
Q 3003 1734 2745 1975 
Q 2488 2216 2034 2216 
z
M 1403 2484 
Q 997 2584 770 2862 
Q 544 3141 544 3541 
Q 544 4100 942 4425 
Q 1341 4750 2034 4750 
Q 2731 4750 3128 4425 
Q 3525 4100 3525 3541 
Q 3525 3141 3298 2862 
Q 3072 2584 2669 2484 
Q 3125 2378 3379 2068 
Q 3634 1759 3634 1313 
Q 3634 634 3220 271 
Q 2806 -91 2034 -91 
Q 1263 -91 848 271 
Q 434 634 434 1313 
Q 434 1759 690 2068 
Q 947 2378 1403 2484 
z
M 1172 3481 
Q 1172 3119 1398 2916 
Q 1625 2713 2034 2713 
Q 2441 2713 2670 2916 
Q 2900 3119 2900 3481 
Q 2900 3844 2670 4047 
Q 2441 4250 2034 4250 
Q 1625 4250 1398 4047 
Q 1172 3844 1172 3481 
z
" id="DejaVuSans-38" transform="scale(0.015625)"/>
       </defs>
       <use xlink:href="#DejaVuSans-30"/>
       <use x="63.623047" xlink:href="#DejaVuSans-2e"/>
       <use x="95.410156" xlink:href="#DejaVuSans-38"/>
      </g>
     </g>
    </g>
    <g id="xtick_6">
     <g id="line2d_6">
      <g>
       <use style="stroke:#000000;stroke-width:0.8;" x="622.636364" xlink:href="#mab541bb316" y="441"/>
      </g>
     </g>
     <g id="text_6">
      <!-- 1.0 -->
      <g transform="translate(614.684801 455.598437)scale(0.1 -0.1)">
       <defs>
        <path d="M 794 531 
L 1825 531 
L 1825 4091 
L 703 3866 
L 703 4441 
L 1819 4666 
L 2450 4666 
L 2450 531 
L 3481 531 
L 3481 0 
L 794 0 
L 794 531 
z
" id="DejaVuSans-31" transform="scale(0.015625)"/>
       </defs>
       <use xlink:href="#DejaVuSans-31"/>
       <use x="63.623047" xlink:href="#DejaVuSans-2e"/>
       <use x="95.410156" xlink:href="#DejaVuSans-30"/>
      </g>
     </g>
    </g>
   </g>
   <g id="matplotlib.axis_2">
    <g id="ytick_1">
     <g id="line2d_7">
      <defs>
       <path d="M 0 0 
L -3.5 0 
" id="m964d6e1a07" style="stroke:#000000;stroke-width:0.8;"/>
      </defs>
      <g>
       <use style="stroke:#000000;stroke-width:0.8;" x="90" xlink:href="#m964d6e1a07" y="423.703636"/>
      </g>
     </g>
     <g id="text_7">
      <!-- 0.0 -->
      <g transform="translate(67.096875 427.502855)scale(0.1 -0.1)">
       <use xlink:href="#DejaVuSans-30"/>
       <use x="63.623047" xlink:href="#DejaVuSans-2e"/>
       <use x="95.410156" xlink:href="#DejaVuSans-30"/>
      </g>
     </g>
    </g>
    <g id="ytick_2">
     <g id="line2d_8">
      <g>
       <use style="stroke:#000000;stroke-width:0.8;" x="90" xlink:href="#m964d6e1a07" y="354.518182"/>
      </g>
     </g>
     <g id="text_8">
      <!-- 0.2 -->
      <g transform="translate(67.096875 358.317401)scale(0.1 -0.1)">
       <use xlink:href="#DejaVuSans-30"/>
       <use x="63.623047" xlink:href="#DejaVuSans-2e"/>
       <use x="95.410156" xlink:href="#DejaVuSans-32"/>
      </g>
     </g>
    </g>
    <g id="ytick_3">
     <g id="line2d_9">
      <g>
       <use style="stroke:#000000;stroke-width:0.8;" x="90" xlink:href="#m964d6e1a07" y="285.332727"/>
      </g>
     </g>
     <g id="text_9">
      <!-- 0.4 -->
      <g transform="translate(67.096875 289.131946)scale(0.1 -0.1)">
       <use xlink:href="#DejaVuSans-30"/>
       <use x="63.623047" xlink:href="#DejaVuSans-2e"/>
       <use x="95.410156" xlink:href="#DejaVuSans-34"/>
      </g>
     </g>
    </g>
    <g id="ytick_4">
     <g id="line2d_10">
      <g>
       <use style="stroke:#000000;stroke-width:0.8;" x="90" xlink:href="#m964d6e1a07" y="216.147273"/>
      </g>
     </g>
     <g id="text_10">
      <!-- 0.6 -->
      <g transform="translate(67.096875 219.946491)scale(0.1 -0.1)">
       <use xlink:href="#DejaVuSans-30"/>
       <use x="63.623047" xlink:href="#DejaVuSans-2e"/>
       <use x="95.410156" xlink:href="#DejaVuSans-36"/>
      </g>
     </g>
    </g>
    <g id="ytick_5">
     <g id="line2d_11">
      <g>
       <use style="stroke:#000000;stroke-width:0.8;" x="90" xlink:href="#m964d6e1a07" y="146.961818"/>
      </g>
     </g>
     <g id="text_11">
      <!-- 0.8 -->
      <g transform="translate(67.096875 150.761037)scale(0.1 -0.1)">
       <use xlink:href="#DejaVuSans-30"/>
       <use x="63.623047" xlink:href="#DejaVuSans-2e"/>
       <use x="95.410156" xlink:href="#DejaVuSans-38"/>
      </g>
     </g>
    </g>
    <g id="ytick_6">
     <g id="line2d_12">
      <g>
       <use style="stroke:#000000;stroke-width:0.8;" x="90" xlink:href="#m964d6e1a07" y="77.776364"/>
      </g>
     </g>
     <g id="text_12">
      <!-- 1.0 -->
      <g transform="translate(67.096875 81.575582)scale(0.1 -0.1)">
       <use xlink:href="#DejaVuSans-31"/>
       <use x="63.623047" xlink:href="#DejaVuSans-2e"/>
       <use x="95.410156" xlink:href="#DejaVuSans-30"/>
      </g>
     </g>
    </g>
   </g>
   <g id="line2d_13">
    <path clip-path="url(#pe7b4b7b911)" d="M 115.363636 423.703636 
L 130.807537 423.703636 
L 130.807537 420.868167 
L 134.371514 420.868167 
L 134.371514 418.032697 
L 136.747498 418.032697 
L 136.747498 415.197228 
L 139.123483 415.197228 
L 139.123483 409.526289 
L 147.439429 409.526289 
L 147.439429 406.69082 
L 151.003406 406.69082 
L 151.003406 401.019881 
L 161.695337 401.019881 
L 161.695337 398.184411 
L 178.32723 398.184411 
L 178.32723 395.348942 
L 183.079199 395.348942 
L 183.079199 392.513472 
L 184.267192 392.513472 
L 184.267192 389.678003 
L 190.207154 389.678003 
L 190.207154 384.007064 
L 196.147115 384.007064 
L 196.147115 381.171595 
L 199.711092 381.171595 
L 199.711092 378.336125 
L 204.463062 378.336125 
L 204.463062 375.500656 
L 215.154993 375.500656 
L 215.154993 372.665186 
L 218.71897 372.665186 
L 218.71897 369.829717 
L 222.282947 369.829717 
L 222.282947 366.994247 
L 228.222908 366.994247 
L 228.222908 364.158778 
L 229.410901 364.158778 
L 229.410901 361.323308 
L 238.914839 361.323308 
L 238.914839 355.65237 
L 260.298701 355.65237 
L 260.298701 352.8169 
L 265.050671 352.8169 
L 265.050671 349.981431 
L 273.366617 349.981431 
L 273.366617 341.475022 
L 274.554609 341.475022 
L 274.554609 338.639553 
L 276.930594 338.639553 
L 276.930594 330.133145 
L 282.870556 330.133145 
L 282.870556 327.297675 
L 285.24654 327.297675 
L 285.24654 324.462206 
L 287.622525 324.462206 
L 287.622525 321.626736 
L 298.314456 321.626736 
L 298.314456 318.791267 
L 304.254418 318.791267 
L 304.254418 315.955797 
L 305.44241 315.955797 
L 305.44241 313.120328 
L 316.134341 313.120328 
L 316.134341 310.284858 
L 318.510326 310.284858 
L 318.510326 307.449389 
L 319.698318 307.449389 
L 319.698318 304.61392 
L 323.262295 304.61392 
L 323.262295 301.77845 
L 329.202257 301.77845 
L 329.202257 298.942981 
L 332.766234 298.942981 
L 332.766234 296.107511 
L 336.330211 296.107511 
L 336.330211 290.436572 
L 337.518203 290.436572 
L 337.518203 287.601103 
L 347.022142 287.601103 
L 347.022142 284.765633 
L 349.398126 284.765633 
L 349.398126 281.930164 
L 357.714073 281.930164 
L 357.714073 279.094694 
L 358.902065 279.094694 
L 358.902065 276.259225 
L 362.466042 276.259225 
L 362.466042 273.423756 
L 363.654034 273.423756 
L 363.654034 270.588286 
L 367.218011 270.588286 
L 367.218011 267.752817 
L 368.406004 267.752817 
L 368.406004 262.081878 
L 371.969981 262.081878 
L 371.969981 256.410939 
L 376.72195 256.410939 
L 376.72195 253.575469 
L 394.541835 253.575469 
L 394.541835 250.74 
L 396.91782 250.74 
L 396.91782 242.233592 
L 400.481797 242.233592 
L 400.481797 239.398122 
L 404.045774 239.398122 
L 404.045774 230.891714 
L 413.549713 230.891714 
L 413.549713 228.056244 
L 417.11369 228.056244 
L 417.11369 225.220775 
L 438.497552 225.220775 
L 438.497552 222.385306 
L 443.249521 222.385306 
L 443.249521 219.549836 
L 449.189483 219.549836 
L 449.189483 216.714367 
L 452.75346 216.714367 
L 452.75346 208.207958 
L 461.069406 208.207958 
L 461.069406 205.372489 
L 465.821375 205.372489 
L 465.821375 202.537019 
L 467.009368 202.537019 
L 467.009368 199.70155 
L 472.949329 199.70155 
L 472.949329 196.86608 
L 483.64126 196.86608 
L 483.64126 194.030611 
L 488.39323 194.030611 
L 488.39323 185.524203 
L 490.769214 185.524203 
L 490.769214 182.688733 
L 491.957207 182.688733 
L 491.957207 179.853264 
L 493.145199 179.853264 
L 493.145199 171.346855 
L 496.709176 171.346855 
L 496.709176 168.511386 
L 507.401107 168.511386 
L 507.401107 162.840447 
L 508.589099 162.840447 
L 508.589099 160.004978 
L 512.153076 160.004978 
L 512.153076 157.169508 
L 524.033 157.169508 
L 524.033 154.334039 
L 525.220992 154.334039 
L 525.220992 148.6631 
L 539.4769 148.6631 
L 539.4769 145.82763 
L 545.416862 145.82763 
L 545.416862 142.992161 
L 546.604854 142.992161 
L 546.604854 140.156692 
L 547.792846 140.156692 
L 547.792846 137.321222 
L 550.168831 137.321222 
L 550.168831 134.485753 
L 556.108793 134.485753 
L 556.108793 131.650283 
L 557.296785 131.650283 
L 557.296785 128.814814 
L 572.740686 128.814814 
L 572.740686 125.979344 
L 576.304663 125.979344 
L 576.304663 120.308405 
L 579.86864 120.308405 
L 579.86864 117.472936 
L 581.056632 117.472936 
L 581.056632 114.637466 
L 582.244624 114.637466 
L 582.244624 111.801997 
L 583.432617 111.801997 
L 583.432617 108.966528 
L 585.808601 108.966528 
L 585.808601 106.131058 
L 600.064509 106.131058 
L 600.064509 103.295589 
L 602.440494 103.295589 
L 602.440494 100.460119 
L 604.816479 100.460119 
L 604.816479 97.62465 
L 607.192463 97.62465 
L 607.192463 94.78918 
L 610.75644 94.78918 
L 610.75644 91.953711 
L 616.696402 91.953711 
L 616.696402 86.282772 
L 622.636364 86.282772 
L 622.636364 77.776364 
L 622.636364 77.776364 
" style="fill:none;stroke:#1f77b4;stroke-linecap:square;stroke-width:1.5;"/>
   </g>
   <g id="line2d_14">
    <path clip-path="url(#pe7b4b7b911)" d="M 115.363636 423.703636 
L 120.115606 423.703636 
L 120.115606 420.868167 
L 124.867575 420.868167 
L 124.867575 418.032697 
L 129.619544 418.032697 
L 129.619544 415.197228 
L 140.311475 415.197228 
L 140.311475 409.526289 
L 141.499468 409.526289 
L 141.499468 406.69082 
L 146.251437 406.69082 
L 146.251437 403.85535 
L 148.627422 403.85535 
L 148.627422 401.019881 
L 152.191399 401.019881 
L 152.191399 398.184411 
L 164.071322 398.184411 
L 164.071322 395.348942 
L 172.387268 395.348942 
L 172.387268 392.513472 
L 173.575261 392.513472 
L 173.575261 389.678003 
L 183.079199 389.678003 
L 183.079199 386.842534 
L 187.831169 386.842534 
L 187.831169 378.336125 
L 193.771131 378.336125 
L 193.771131 375.500656 
L 197.335108 375.500656 
L 197.335108 372.665186 
L 199.711092 372.665186 
L 199.711092 366.994247 
L 210.403023 366.994247 
L 210.403023 364.158778 
L 211.591016 364.158778 
L 211.591016 361.323308 
L 230.598893 361.323308 
L 230.598893 358.487839 
L 243.666809 358.487839 
L 243.666809 355.65237 
L 260.298701 355.65237 
L 260.298701 352.8169 
L 266.238663 352.8169 
L 266.238663 349.981431 
L 274.554609 349.981431 
L 274.554609 344.310492 
L 300.690441 344.310492 
L 300.690441 341.475022 
L 304.254418 341.475022 
L 304.254418 338.639553 
L 306.630402 338.639553 
L 306.630402 335.804083 
L 310.194379 335.804083 
L 310.194379 332.968614 
L 328.014264 332.968614 
L 328.014264 330.133145 
L 331.578241 330.133145 
L 331.578241 324.462206 
L 333.954226 324.462206 
L 333.954226 318.791267 
L 336.330211 318.791267 
L 336.330211 315.955797 
L 344.646157 315.955797 
L 344.646157 313.120328 
L 349.398126 313.120328 
L 349.398126 310.284858 
L 350.586119 310.284858 
L 350.586119 307.449389 
L 352.962103 307.449389 
L 352.962103 301.77845 
L 363.654034 301.77845 
L 363.654034 298.942981 
L 366.030019 298.942981 
L 366.030019 296.107511 
L 370.781989 296.107511 
L 370.781989 287.601103 
L 373.157973 287.601103 
L 373.157973 281.930164 
L 383.849904 281.930164 
L 383.849904 279.094694 
L 392.165851 279.094694 
L 392.165851 273.423756 
L 404.045774 273.423756 
L 404.045774 267.752817 
L 405.233766 267.752817 
L 405.233766 264.917347 
L 417.11369 264.917347 
L 417.11369 262.081878 
L 421.865659 262.081878 
L 421.865659 259.246408 
L 425.429636 259.246408 
L 425.429636 256.410939 
L 426.617628 256.410939 
L 426.617628 253.575469 
L 431.369598 253.575469 
L 431.369598 250.74 
L 432.55759 250.74 
L 432.55759 247.904531 
L 433.745582 247.904531 
L 433.745582 245.069061 
L 434.933575 245.069061 
L 434.933575 242.233592 
L 438.497552 242.233592 
L 438.497552 236.562653 
L 444.437513 236.562653 
L 444.437513 233.727183 
L 450.377475 233.727183 
L 450.377475 230.891714 
L 453.941452 230.891714 
L 453.941452 225.220775 
L 465.821375 225.220775 
L 465.821375 222.385306 
L 468.19736 222.385306 
L 468.19736 216.714367 
L 471.761337 216.714367 
L 471.761337 213.878897 
L 472.949329 213.878897 
L 472.949329 211.043428 
L 478.889291 211.043428 
L 478.889291 208.207958 
L 481.265276 208.207958 
L 481.265276 205.372489 
L 483.64126 205.372489 
L 483.64126 202.537019 
L 486.017245 202.537019 
L 486.017245 199.70155 
L 494.333191 199.70155 
L 494.333191 194.030611 
L 497.897168 194.030611 
L 497.897168 191.195142 
L 503.83713 191.195142 
L 503.83713 188.359672 
L 505.025122 188.359672 
L 505.025122 174.182325 
L 516.905046 174.182325 
L 516.905046 171.346855 
L 527.596977 171.346855 
L 527.596977 168.511386 
L 529.972961 168.511386 
L 529.972961 165.675917 
L 531.160954 165.675917 
L 531.160954 162.840447 
L 539.4769 162.840447 
L 539.4769 160.004978 
L 545.416862 160.004978 
L 545.416862 157.169508 
L 546.604854 157.169508 
L 546.604854 151.498569 
L 553.732808 151.498569 
L 553.732808 148.6631 
L 556.108793 148.6631 
L 556.108793 145.82763 
L 562.048755 145.82763 
L 562.048755 142.992161 
L 563.236747 142.992161 
L 563.236747 140.156692 
L 567.988716 140.156692 
L 567.988716 137.321222 
L 573.928678 137.321222 
L 573.928678 134.485753 
L 579.86864 134.485753 
L 579.86864 131.650283 
L 584.620609 131.650283 
L 584.620609 128.814814 
L 586.996594 128.814814 
L 586.996594 125.979344 
L 590.560571 125.979344 
L 590.560571 123.143875 
L 591.748563 123.143875 
L 591.748563 117.472936 
L 592.936555 117.472936 
L 592.936555 114.637466 
L 597.688525 114.637466 
L 597.688525 111.801997 
L 602.440494 111.801997 
L 602.440494 103.295589 
L 607.192463 103.295589 
L 607.192463 97.62465 
L 608.380456 97.62465 
L 608.380456 94.78918 
L 611.944433 94.78918 
L 611.944433 91.953711 
L 613.132425 91.953711 
L 613.132425 89.118241 
L 615.50841 89.118241 
L 615.50841 83.447303 
L 619.072387 83.447303 
L 619.072387 80.611833 
L 621.448371 80.611833 
L 621.448371 77.776364 
L 622.636364 77.776364 
L 622.636364 77.776364 
" style="fill:none;stroke:#ff7f0e;stroke-linecap:square;stroke-width:1.5;"/>
   </g>
   <g id="line2d_15">
    <path clip-path="url(#pe7b4b7b911)" d="M 115.363636 423.703636 
L 117.739621 423.703636 
L 117.739621 420.868167 
L 122.49159 420.868167 
L 122.49159 418.032697 
L 126.055567 418.032697 
L 126.055567 415.197228 
L 128.431552 415.197228 
L 128.431552 412.361759 
L 134.371514 412.361759 
L 134.371514 406.69082 
L 136.747498 406.69082 
L 136.747498 403.85535 
L 139.123483 403.85535 
L 139.123483 392.513472 
L 141.499468 392.513472 
L 141.499468 389.678003 
L 147.439429 389.678003 
L 147.439429 386.842534 
L 156.943368 386.842534 
L 156.943368 381.171595 
L 164.071322 381.171595 
L 164.071322 378.336125 
L 166.447307 378.336125 
L 166.447307 375.500656 
L 170.011284 375.500656 
L 170.011284 372.665186 
L 174.763253 372.665186 
L 174.763253 366.994247 
L 180.703215 366.994247 
L 180.703215 364.158778 
L 186.643176 364.158778 
L 186.643176 358.487839 
L 187.831169 358.487839 
L 187.831169 355.65237 
L 191.395146 355.65237 
L 191.395146 352.8169 
L 192.583138 352.8169 
L 192.583138 349.981431 
L 193.771131 349.981431 
L 193.771131 341.475022 
L 194.959123 341.475022 
L 194.959123 338.639553 
L 202.087077 338.639553 
L 202.087077 335.804083 
L 209.215031 335.804083 
L 209.215031 332.968614 
L 213.967 332.968614 
L 213.967 327.297675 
L 216.342985 327.297675 
L 216.342985 324.462206 
L 218.71897 324.462206 
L 218.71897 318.791267 
L 221.094954 318.791267 
L 221.094954 315.955797 
L 227.034916 315.955797 
L 227.034916 313.120328 
L 230.598893 313.120328 
L 230.598893 310.284858 
L 234.16287 310.284858 
L 234.16287 301.77845 
L 235.350862 301.77845 
L 235.350862 298.942981 
L 237.726847 298.942981 
L 237.726847 293.272042 
L 242.478816 293.272042 
L 242.478816 290.436572 
L 247.230786 290.436572 
L 247.230786 287.601103 
L 248.418778 287.601103 
L 248.418778 284.765633 
L 259.110709 284.765633 
L 259.110709 276.259225 
L 265.050671 276.259225 
L 265.050671 273.423756 
L 273.366617 273.423756 
L 273.366617 270.588286 
L 282.870556 270.588286 
L 282.870556 267.752817 
L 288.810517 267.752817 
L 288.810517 264.917347 
L 297.126464 264.917347 
L 297.126464 262.081878 
L 300.690441 262.081878 
L 300.690441 253.575469 
L 301.878433 253.575469 
L 301.878433 250.74 
L 305.44241 250.74 
L 305.44241 247.904531 
L 307.818395 247.904531 
L 307.818395 245.069061 
L 309.006387 245.069061 
L 309.006387 242.233592 
L 317.322333 242.233592 
L 317.322333 239.398122 
L 320.88631 239.398122 
L 320.88631 236.562653 
L 328.014264 236.562653 
L 328.014264 233.727183 
L 329.202257 233.727183 
L 329.202257 228.056244 
L 332.766234 228.056244 
L 332.766234 219.549836 
L 343.458165 219.549836 
L 343.458165 216.714367 
L 352.962103 216.714367 
L 352.962103 213.878897 
L 358.902065 213.878897 
L 358.902065 211.043428 
L 361.27805 211.043428 
L 361.27805 208.207958 
L 362.466042 208.207958 
L 362.466042 205.372489 
L 370.781989 205.372489 
L 370.781989 202.537019 
L 376.72195 202.537019 
L 376.72195 199.70155 
L 381.47392 199.70155 
L 381.47392 196.86608 
L 396.91782 196.86608 
L 396.91782 194.030611 
L 399.293805 194.030611 
L 399.293805 191.195142 
L 400.481797 191.195142 
L 400.481797 188.359672 
L 404.045774 188.359672 
L 404.045774 185.524203 
L 415.925697 185.524203 
L 415.925697 182.688733 
L 437.309559 182.688733 
L 437.309559 179.853264 
L 440.873536 179.853264 
L 440.873536 177.017794 
L 455.129444 177.017794 
L 455.129444 174.182325 
L 459.881414 174.182325 
L 459.881414 165.675917 
L 461.069406 165.675917 
L 461.069406 162.840447 
L 465.821375 162.840447 
L 465.821375 160.004978 
L 467.009368 160.004978 
L 467.009368 157.169508 
L 476.513306 157.169508 
L 476.513306 151.498569 
L 481.265276 151.498569 
L 481.265276 148.6631 
L 495.521184 148.6631 
L 495.521184 142.992161 
L 497.897168 142.992161 
L 497.897168 137.321222 
L 500.273153 137.321222 
L 500.273153 131.650283 
L 501.461145 131.650283 
L 501.461145 125.979344 
L 507.401107 125.979344 
L 507.401107 123.143875 
L 513.341069 123.143875 
L 513.341069 117.472936 
L 520.469023 117.472936 
L 520.469023 114.637466 
L 522.845007 114.637466 
L 522.845007 111.801997 
L 525.220992 111.801997 
L 525.220992 108.966528 
L 528.784969 108.966528 
L 528.784969 106.131058 
L 535.912923 106.131058 
L 535.912923 103.295589 
L 537.100915 103.295589 
L 537.100915 97.62465 
L 546.604854 97.62465 
L 546.604854 94.78918 
L 554.920801 94.78918 
L 554.920801 91.953711 
L 582.244624 91.953711 
L 582.244624 89.118241 
L 585.808601 89.118241 
L 585.808601 86.282772 
L 591.748563 86.282772 
L 591.748563 83.447303 
L 592.936555 83.447303 
L 592.936555 80.611833 
L 594.124548 80.611833 
L 594.124548 77.776364 
L 622.636364 77.776364 
L 622.636364 77.776364 
" style="fill:none;stroke:#2ca02c;stroke-linecap:square;stroke-width:1.5;"/>
   </g>
   <g id="line2d_16">
    <path clip-path="url(#pe7b4b7b911)" d="M 115.363636 423.703636 
L 117.739621 423.703636 
L 117.739621 420.868167 
L 128.431552 420.868167 
L 128.431552 418.032697 
L 129.619544 418.032697 
L 129.619544 415.197228 
L 130.807537 415.197228 
L 130.807537 412.361759 
L 131.995529 412.361759 
L 131.995529 409.526289 
L 133.183521 409.526289 
L 133.183521 403.85535 
L 141.499468 403.85535 
L 141.499468 401.019881 
L 151.003406 401.019881 
L 151.003406 398.184411 
L 152.191399 398.184411 
L 152.191399 395.348942 
L 162.88333 395.348942 
L 162.88333 392.513472 
L 164.071322 392.513472 
L 164.071322 389.678003 
L 168.823291 389.678003 
L 168.823291 386.842534 
L 170.011284 386.842534 
L 170.011284 384.007064 
L 174.763253 384.007064 
L 174.763253 381.171595 
L 184.267192 381.171595 
L 184.267192 378.336125 
L 189.019161 378.336125 
L 189.019161 375.500656 
L 196.147115 375.500656 
L 196.147115 372.665186 
L 203.275069 372.665186 
L 203.275069 369.829717 
L 204.463062 369.829717 
L 204.463062 366.994247 
L 209.215031 366.994247 
L 209.215031 364.158778 
L 210.403023 364.158778 
L 210.403023 358.487839 
L 212.779008 358.487839 
L 212.779008 355.65237 
L 213.967 355.65237 
L 213.967 352.8169 
L 222.282947 352.8169 
L 222.282947 349.981431 
L 223.470939 349.981431 
L 223.470939 347.145961 
L 229.410901 347.145961 
L 229.410901 338.639553 
L 230.598893 338.639553 
L 230.598893 335.804083 
L 231.786885 335.804083 
L 231.786885 327.297675 
L 234.16287 327.297675 
L 234.16287 324.462206 
L 247.230786 324.462206 
L 247.230786 321.626736 
L 248.418778 321.626736 
L 248.418778 318.791267 
L 257.922717 318.791267 
L 257.922717 313.120328 
L 272.178625 313.120328 
L 272.178625 310.284858 
L 293.562487 310.284858 
L 293.562487 301.77845 
L 295.938471 301.77845 
L 295.938471 298.942981 
L 304.254418 298.942981 
L 304.254418 296.107511 
L 310.194379 296.107511 
L 310.194379 293.272042 
L 323.262295 293.272042 
L 323.262295 290.436572 
L 324.450287 290.436572 
L 324.450287 287.601103 
L 326.826272 287.601103 
L 326.826272 284.765633 
L 328.014264 284.765633 
L 328.014264 281.930164 
L 330.390249 281.930164 
L 330.390249 276.259225 
L 333.954226 276.259225 
L 333.954226 273.423756 
L 336.330211 273.423756 
L 336.330211 270.588286 
L 337.518203 270.588286 
L 337.518203 267.752817 
L 338.706195 267.752817 
L 338.706195 264.917347 
L 345.834149 264.917347 
L 345.834149 259.246408 
L 348.210134 259.246408 
L 348.210134 256.410939 
L 351.774111 256.410939 
L 351.774111 253.575469 
L 371.969981 253.575469 
L 371.969981 250.74 
L 374.345966 250.74 
L 374.345966 247.904531 
L 376.72195 247.904531 
L 376.72195 245.069061 
L 385.037897 245.069061 
L 385.037897 242.233592 
L 387.413881 242.233592 
L 387.413881 239.398122 
L 389.789866 239.398122 
L 389.789866 236.562653 
L 392.165851 236.562653 
L 392.165851 233.727183 
L 395.729828 233.727183 
L 395.729828 230.891714 
L 404.045774 230.891714 
L 404.045774 225.220775 
L 409.985736 225.220775 
L 409.985736 222.385306 
L 412.36172 222.385306 
L 412.36172 216.714367 
L 413.549713 216.714367 
L 413.549713 213.878897 
L 417.11369 213.878897 
L 417.11369 205.372489 
L 437.309559 205.372489 
L 437.309559 202.537019 
L 452.75346 202.537019 
L 452.75346 196.86608 
L 455.129444 196.86608 
L 455.129444 194.030611 
L 457.505429 194.030611 
L 457.505429 191.195142 
L 458.693421 191.195142 
L 458.693421 188.359672 
L 467.009368 188.359672 
L 467.009368 185.524203 
L 475.325314 185.524203 
L 475.325314 182.688733 
L 477.701299 182.688733 
L 477.701299 177.017794 
L 482.453268 177.017794 
L 482.453268 174.182325 
L 489.581222 174.182325 
L 489.581222 171.346855 
L 490.769214 171.346855 
L 490.769214 168.511386 
L 493.145199 168.511386 
L 493.145199 154.334039 
L 495.521184 154.334039 
L 495.521184 151.498569 
L 497.897168 151.498569 
L 497.897168 148.6631 
L 501.461145 148.6631 
L 501.461145 142.992161 
L 506.213115 142.992161 
L 506.213115 140.156692 
L 508.589099 140.156692 
L 508.589099 134.485753 
L 510.965084 134.485753 
L 510.965084 131.650283 
L 513.341069 131.650283 
L 513.341069 128.814814 
L 520.469023 128.814814 
L 520.469023 125.979344 
L 522.845007 125.979344 
L 522.845007 123.143875 
L 527.596977 123.143875 
L 527.596977 120.308405 
L 539.4769 120.308405 
L 539.4769 117.472936 
L 553.732808 117.472936 
L 553.732808 114.637466 
L 559.67277 114.637466 
L 559.67277 111.801997 
L 564.424739 111.801997 
L 564.424739 108.966528 
L 572.740686 108.966528 
L 572.740686 97.62465 
L 577.492655 97.62465 
L 577.492655 94.78918 
L 578.680647 94.78918 
L 578.680647 91.953711 
L 579.86864 91.953711 
L 579.86864 89.118241 
L 597.688525 89.118241 
L 597.688525 86.282772 
L 614.320417 86.282772 
L 614.320417 83.447303 
L 622.636364 83.447303 
L 622.636364 77.776364 
L 622.636364 77.776364 
" style="fill:none;stroke:#d62728;stroke-linecap:square;stroke-width:1.5;"/>
   </g>
   <g id="line2d_17">
    <path clip-path="url(#pe7b4b7b911)" d="M 115.363636 423.703636 
L 115.363636 415.197228 
L 116.551629 415.197228 
L 116.551629 412.361759 
L 117.739621 412.361759 
L 117.739621 409.526289 
L 120.115606 409.526289 
L 120.115606 403.85535 
L 127.24356 403.85535 
L 127.24356 392.513472 
L 135.559506 392.513472 
L 135.559506 386.842534 
L 136.747498 386.842534 
L 136.747498 381.171595 
L 140.311475 381.171595 
L 140.311475 375.500656 
L 145.063445 375.500656 
L 145.063445 372.665186 
L 149.815414 372.665186 
L 149.815414 369.829717 
L 153.379391 369.829717 
L 153.379391 366.994247 
L 154.567383 366.994247 
L 154.567383 364.158778 
L 155.755376 364.158778 
L 155.755376 361.323308 
L 156.943368 361.323308 
L 156.943368 349.981431 
L 158.13136 349.981431 
L 158.13136 344.310492 
L 165.259314 344.310492 
L 165.259314 341.475022 
L 167.635299 341.475022 
L 167.635299 338.639553 
L 168.823291 338.639553 
L 168.823291 332.968614 
L 170.011284 332.968614 
L 170.011284 330.133145 
L 171.199276 330.133145 
L 171.199276 327.297675 
L 175.951245 327.297675 
L 175.951245 324.462206 
L 181.891207 324.462206 
L 181.891207 321.626736 
L 185.455184 321.626736 
L 185.455184 318.791267 
L 189.019161 318.791267 
L 189.019161 315.955797 
L 190.207154 315.955797 
L 190.207154 313.120328 
L 191.395146 313.120328 
L 191.395146 310.284858 
L 196.147115 310.284858 
L 196.147115 304.61392 
L 204.463062 304.61392 
L 204.463062 301.77845 
L 205.651054 301.77845 
L 205.651054 298.942981 
L 212.779008 298.942981 
L 212.779008 296.107511 
L 217.530977 296.107511 
L 217.530977 290.436572 
L 221.094954 290.436572 
L 221.094954 284.765633 
L 223.470939 284.765633 
L 223.470939 279.094694 
L 229.410901 279.094694 
L 229.410901 276.259225 
L 230.598893 276.259225 
L 230.598893 273.423756 
L 235.350862 273.423756 
L 235.350862 267.752817 
L 236.538855 267.752817 
L 236.538855 264.917347 
L 238.914839 264.917347 
L 238.914839 259.246408 
L 246.042793 259.246408 
L 246.042793 256.410939 
L 250.794763 256.410939 
L 250.794763 253.575469 
L 257.922717 253.575469 
L 257.922717 250.74 
L 266.238663 250.74 
L 266.238663 247.904531 
L 273.366617 247.904531 
L 273.366617 245.069061 
L 280.494571 245.069061 
L 280.494571 242.233592 
L 297.126464 242.233592 
L 297.126464 239.398122 
L 307.818395 239.398122 
L 307.818395 233.727183 
L 309.006387 233.727183 
L 309.006387 230.891714 
L 313.758356 230.891714 
L 313.758356 228.056244 
L 318.510326 228.056244 
L 318.510326 225.220775 
L 320.88631 225.220775 
L 320.88631 222.385306 
L 323.262295 222.385306 
L 323.262295 219.549836 
L 324.450287 219.549836 
L 324.450287 216.714367 
L 333.954226 216.714367 
L 333.954226 213.878897 
L 335.142218 213.878897 
L 335.142218 211.043428 
L 339.894188 211.043428 
L 339.894188 205.372489 
L 342.270172 205.372489 
L 342.270172 202.537019 
L 343.458165 202.537019 
L 343.458165 199.70155 
L 344.646157 199.70155 
L 344.646157 196.86608 
L 349.398126 196.86608 
L 349.398126 194.030611 
L 350.586119 194.030611 
L 350.586119 191.195142 
L 370.781989 191.195142 
L 370.781989 188.359672 
L 374.345966 188.359672 
L 374.345966 185.524203 
L 381.47392 185.524203 
L 381.47392 182.688733 
L 382.661912 182.688733 
L 382.661912 179.853264 
L 389.789866 179.853264 
L 389.789866 177.017794 
L 393.353843 177.017794 
L 393.353843 174.182325 
L 395.729828 174.182325 
L 395.729828 168.511386 
L 400.481797 168.511386 
L 400.481797 165.675917 
L 401.669789 165.675917 
L 401.669789 162.840447 
L 405.233766 162.840447 
L 405.233766 151.498569 
L 407.609751 151.498569 
L 407.609751 148.6631 
L 413.549713 148.6631 
L 413.549713 145.82763 
L 421.865659 145.82763 
L 421.865659 142.992161 
L 430.181605 142.992161 
L 430.181605 140.156692 
L 437.309559 140.156692 
L 437.309559 137.321222 
L 438.497552 137.321222 
L 438.497552 128.814814 
L 450.377475 128.814814 
L 450.377475 125.979344 
L 451.565467 125.979344 
L 451.565467 123.143875 
L 457.505429 123.143875 
L 457.505429 117.472936 
L 459.881414 117.472936 
L 459.881414 114.637466 
L 469.385352 114.637466 
L 469.385352 111.801997 
L 475.325314 111.801997 
L 475.325314 108.966528 
L 477.701299 108.966528 
L 477.701299 106.131058 
L 506.213115 106.131058 
L 506.213115 103.295589 
L 534.724931 103.295589 
L 534.724931 100.460119 
L 547.792846 100.460119 
L 547.792846 94.78918 
L 578.680647 94.78918 
L 578.680647 91.953711 
L 584.620609 91.953711 
L 584.620609 89.118241 
L 586.996594 89.118241 
L 586.996594 86.282772 
L 600.064509 86.282772 
L 600.064509 83.447303 
L 610.75644 83.447303 
L 610.75644 80.611833 
L 616.696402 80.611833 
L 616.696402 77.776364 
L 622.636364 77.776364 
L 622.636364 77.776364 
" style="fill:none;stroke:#9467bd;stroke-linecap:square;stroke-width:1.5;"/>
   </g>
   <g id="line2d_18">
    <path clip-path="url(#pe7b4b7b911)" d="M 115.363636 423.703636 
L 117.739621 423.703636 
L 117.739621 420.868167 
L 124.867575 420.868167 
L 124.867575 415.197228 
L 130.807537 415.197228 
L 130.807537 412.361759 
L 133.183521 412.361759 
L 133.183521 409.526289 
L 134.371514 409.526289 
L 134.371514 403.85535 
L 139.123483 403.85535 
L 139.123483 401.019881 
L 148.627422 401.019881 
L 148.627422 398.184411 
L 152.191399 398.184411 
L 152.191399 392.513472 
L 155.755376 392.513472 
L 155.755376 389.678003 
L 159.319353 389.678003 
L 159.319353 386.842534 
L 167.635299 386.842534 
L 167.635299 381.171595 
L 171.199276 381.171595 
L 171.199276 378.336125 
L 191.395146 378.336125 
L 191.395146 375.500656 
L 193.771131 375.500656 
L 193.771131 372.665186 
L 197.335108 372.665186 
L 197.335108 369.829717 
L 198.5231 369.829717 
L 198.5231 366.994247 
L 200.899085 366.994247 
L 200.899085 361.323308 
L 210.403023 361.323308 
L 210.403023 358.487839 
L 212.779008 358.487839 
L 212.779008 355.65237 
L 213.967 355.65237 
L 213.967 352.8169 
L 216.342985 352.8169 
L 216.342985 349.981431 
L 217.530977 349.981431 
L 217.530977 347.145961 
L 244.854801 347.145961 
L 244.854801 344.310492 
L 249.60677 344.310492 
L 249.60677 341.475022 
L 257.922717 341.475022 
L 257.922717 338.639553 
L 263.862678 338.639553 
L 263.862678 335.804083 
L 265.050671 335.804083 
L 265.050671 332.968614 
L 268.614648 332.968614 
L 268.614648 330.133145 
L 270.990632 330.133145 
L 270.990632 324.462206 
L 272.178625 324.462206 
L 272.178625 321.626736 
L 274.554609 321.626736 
L 274.554609 313.120328 
L 275.742602 313.120328 
L 275.742602 310.284858 
L 276.930594 310.284858 
L 276.930594 304.61392 
L 279.306579 304.61392 
L 279.306579 301.77845 
L 285.24654 301.77845 
L 285.24654 298.942981 
L 287.622525 298.942981 
L 287.622525 296.107511 
L 289.99851 296.107511 
L 289.99851 293.272042 
L 298.314456 293.272042 
L 298.314456 290.436572 
L 300.690441 290.436572 
L 300.690441 287.601103 
L 301.878433 287.601103 
L 301.878433 284.765633 
L 304.254418 284.765633 
L 304.254418 281.930164 
L 305.44241 281.930164 
L 305.44241 279.094694 
L 309.006387 279.094694 
L 309.006387 273.423756 
L 314.946349 273.423756 
L 314.946349 270.588286 
L 316.134341 270.588286 
L 316.134341 267.752817 
L 317.322333 267.752817 
L 317.322333 264.917347 
L 323.262295 264.917347 
L 323.262295 253.575469 
L 325.63828 253.575469 
L 325.63828 247.904531 
L 326.826272 247.904531 
L 326.826272 245.069061 
L 328.014264 245.069061 
L 328.014264 242.233592 
L 331.578241 242.233592 
L 331.578241 239.398122 
L 332.766234 239.398122 
L 332.766234 236.562653 
L 335.142218 236.562653 
L 335.142218 230.891714 
L 336.330211 230.891714 
L 336.330211 228.056244 
L 341.08218 228.056244 
L 341.08218 222.385306 
L 350.586119 222.385306 
L 350.586119 219.549836 
L 360.090057 219.549836 
L 360.090057 216.714367 
L 369.593996 216.714367 
L 369.593996 213.878897 
L 382.661912 213.878897 
L 382.661912 211.043428 
L 386.225889 211.043428 
L 386.225889 208.207958 
L 388.601874 208.207958 
L 388.601874 205.372489 
L 409.985736 205.372489 
L 409.985736 196.86608 
L 413.549713 196.86608 
L 413.549713 194.030611 
L 421.865659 194.030611 
L 421.865659 191.195142 
L 426.617628 191.195142 
L 426.617628 185.524203 
L 431.369598 185.524203 
L 431.369598 182.688733 
L 436.121567 182.688733 
L 436.121567 177.017794 
L 438.497552 177.017794 
L 438.497552 171.346855 
L 439.685544 171.346855 
L 439.685544 168.511386 
L 440.873536 168.511386 
L 440.873536 165.675917 
L 444.437513 165.675917 
L 444.437513 162.840447 
L 450.377475 162.840447 
L 450.377475 160.004978 
L 463.445391 160.004978 
L 463.445391 154.334039 
L 481.265276 154.334039 
L 481.265276 151.498569 
L 484.829253 151.498569 
L 484.829253 148.6631 
L 489.581222 148.6631 
L 489.581222 142.992161 
L 490.769214 142.992161 
L 490.769214 140.156692 
L 495.521184 140.156692 
L 495.521184 137.321222 
L 515.717053 137.321222 
L 515.717053 134.485753 
L 537.100915 134.485753 
L 537.100915 131.650283 
L 538.288908 131.650283 
L 538.288908 128.814814 
L 539.4769 128.814814 
L 539.4769 120.308405 
L 541.852885 120.308405 
L 541.852885 117.472936 
L 560.860762 117.472936 
L 560.860762 114.637466 
L 581.056632 114.637466 
L 581.056632 111.801997 
L 592.936555 111.801997 
L 592.936555 108.966528 
L 597.688525 108.966528 
L 597.688525 103.295589 
L 598.876517 103.295589 
L 598.876517 100.460119 
L 606.004471 100.460119 
L 606.004471 97.62465 
L 608.380456 97.62465 
L 608.380456 94.78918 
L 610.75644 94.78918 
L 610.75644 89.118241 
L 614.320417 89.118241 
L 614.320417 86.282772 
L 615.50841 86.282772 
L 615.50841 83.447303 
L 622.636364 83.447303 
L 622.636364 77.776364 
L 622.636364 77.776364 
" style="fill:none;stroke:#8c564b;stroke-linecap:square;stroke-width:1.5;"/>
   </g>
   <g id="patch_3">
    <path d="M 90 441 
L 90 60.48 
" style="fill:none;stroke:#000000;stroke-linecap:square;stroke-linejoin:miter;stroke-width:0.8;"/>
   </g>
   <g id="patch_4">
    <path d="M 648 441 
L 648 60.48 
" style="fill:none;stroke:#000000;stroke-linecap:square;stroke-linejoin:miter;stroke-width:0.8;"/>
   </g>
   <g id="patch_5">
    <path d="M 90 441 
L 648 441 
" style="fill:none;stroke:#000000;stroke-linecap:square;stroke-linejoin:miter;stroke-width:0.8;"/>
   </g>
   <g id="patch_6">
    <path d="M 90 60.48 
L 648 60.48 
" style="fill:none;stroke:#000000;stroke-linecap:square;stroke-linejoin:miter;stroke-width:0.8;"/>
   </g>
   <g id="legend_1">
    <g id="patch_7">
     <path d="M 97 156.54875 
L 256.151563 156.54875 
Q 258.151563 156.54875 258.151563 154.54875 
L 258.151563 67.48 
Q 258.151563 65.48 256.151563 65.48 
L 97 65.48 
Q 95 65.48 95 67.48 
L 95 154.54875 
Q 95 156.54875 97 156.54875 
z
" style="fill:#ffffff;opacity:0.8;stroke:#cccccc;stroke-linejoin:miter;"/>
    </g>
    <g id="line2d_19">
     <path d="M 99 73.578438 
L 119 73.578438 
" style="fill:none;stroke:#1f77b4;stroke-linecap:square;stroke-width:1.5;"/>
    </g>
    <g id="line2d_20"/>
    <g id="text_13">
     <!-- Smina Score -->
     <g transform="translate(127 77.078438)scale(0.1 -0.1)">
      <defs>
       <path d="M 3425 4513 
L 3425 3897 
Q 3066 4069 2747 4153 
Q 2428 4238 2131 4238 
Q 1616 4238 1336 4038 
Q 1056 3838 1056 3469 
Q 1056 3159 1242 3001 
Q 1428 2844 1947 2747 
L 2328 2669 
Q 3034 2534 3370 2195 
Q 3706 1856 3706 1288 
Q 3706 609 3251 259 
Q 2797 -91 1919 -91 
Q 1588 -91 1214 -16 
Q 841 59 441 206 
L 441 856 
Q 825 641 1194 531 
Q 1563 422 1919 422 
Q 2459 422 2753 634 
Q 3047 847 3047 1241 
Q 3047 1584 2836 1778 
Q 2625 1972 2144 2069 
L 1759 2144 
Q 1053 2284 737 2584 
Q 422 2884 422 3419 
Q 422 4038 858 4394 
Q 1294 4750 2059 4750 
Q 2388 4750 2728 4690 
Q 3069 4631 3425 4513 
z
" id="DejaVuSans-53" transform="scale(0.015625)"/>
       <path d="M 3328 2828 
Q 3544 3216 3844 3400 
Q 4144 3584 4550 3584 
Q 5097 3584 5394 3201 
Q 5691 2819 5691 2113 
L 5691 0 
L 5113 0 
L 5113 2094 
Q 5113 2597 4934 2840 
Q 4756 3084 4391 3084 
Q 3944 3084 3684 2787 
Q 3425 2491 3425 1978 
L 3425 0 
L 2847 0 
L 2847 2094 
Q 2847 2600 2669 2842 
Q 2491 3084 2119 3084 
Q 1678 3084 1418 2786 
Q 1159 2488 1159 1978 
L 1159 0 
L 581 0 
L 581 3500 
L 1159 3500 
L 1159 2956 
Q 1356 3278 1631 3431 
Q 1906 3584 2284 3584 
Q 2666 3584 2933 3390 
Q 3200 3197 3328 2828 
z
" id="DejaVuSans-6d" transform="scale(0.015625)"/>
       <path d="M 603 3500 
L 1178 3500 
L 1178 0 
L 603 0 
L 603 3500 
z
M 603 4863 
L 1178 4863 
L 1178 4134 
L 603 4134 
L 603 4863 
z
" id="DejaVuSans-69" transform="scale(0.015625)"/>
       <path d="M 3513 2113 
L 3513 0 
L 2938 0 
L 2938 2094 
Q 2938 2591 2744 2837 
Q 2550 3084 2163 3084 
Q 1697 3084 1428 2787 
Q 1159 2491 1159 1978 
L 1159 0 
L 581 0 
L 581 3500 
L 1159 3500 
L 1159 2956 
Q 1366 3272 1645 3428 
Q 1925 3584 2291 3584 
Q 2894 3584 3203 3211 
Q 3513 2838 3513 2113 
z
" id="DejaVuSans-6e" transform="scale(0.015625)"/>
       <path d="M 2194 1759 
Q 1497 1759 1228 1600 
Q 959 1441 959 1056 
Q 959 750 1161 570 
Q 1363 391 1709 391 
Q 2188 391 2477 730 
Q 2766 1069 2766 1631 
L 2766 1759 
L 2194 1759 
z
M 3341 1997 
L 3341 0 
L 2766 0 
L 2766 531 
Q 2569 213 2275 61 
Q 1981 -91 1556 -91 
Q 1019 -91 701 211 
Q 384 513 384 1019 
Q 384 1609 779 1909 
Q 1175 2209 1959 2209 
L 2766 2209 
L 2766 2266 
Q 2766 2663 2505 2880 
Q 2244 3097 1772 3097 
Q 1472 3097 1187 3025 
Q 903 2953 641 2809 
L 641 3341 
Q 956 3463 1253 3523 
Q 1550 3584 1831 3584 
Q 2591 3584 2966 3190 
Q 3341 2797 3341 1997 
z
" id="DejaVuSans-61" transform="scale(0.015625)"/>
       <path id="DejaVuSans-20" transform="scale(0.015625)"/>
       <path d="M 3122 3366 
L 3122 2828 
Q 2878 2963 2633 3030 
Q 2388 3097 2138 3097 
Q 1578 3097 1268 2742 
Q 959 2388 959 1747 
Q 959 1106 1268 751 
Q 1578 397 2138 397 
Q 2388 397 2633 464 
Q 2878 531 3122 666 
L 3122 134 
Q 2881 22 2623 -34 
Q 2366 -91 2075 -91 
Q 1284 -91 818 406 
Q 353 903 353 1747 
Q 353 2603 823 3093 
Q 1294 3584 2113 3584 
Q 2378 3584 2631 3529 
Q 2884 3475 3122 3366 
z
" id="DejaVuSans-63" transform="scale(0.015625)"/>
       <path d="M 1959 3097 
Q 1497 3097 1228 2736 
Q 959 2375 959 1747 
Q 959 1119 1226 758 
Q 1494 397 1959 397 
Q 2419 397 2687 759 
Q 2956 1122 2956 1747 
Q 2956 2369 2687 2733 
Q 2419 3097 1959 3097 
z
M 1959 3584 
Q 2709 3584 3137 3096 
Q 3566 2609 3566 1747 
Q 3566 888 3137 398 
Q 2709 -91 1959 -91 
Q 1206 -91 779 398 
Q 353 888 353 1747 
Q 353 2609 779 3096 
Q 1206 3584 1959 3584 
z
" id="DejaVuSans-6f" transform="scale(0.015625)"/>
       <path d="M 2631 2963 
Q 2534 3019 2420 3045 
Q 2306 3072 2169 3072 
Q 1681 3072 1420 2755 
Q 1159 2438 1159 1844 
L 1159 0 
L 581 0 
L 581 3500 
L 1159 3500 
L 1159 2956 
Q 1341 3275 1631 3429 
Q 1922 3584 2338 3584 
Q 2397 3584 2469 3576 
Q 2541 3569 2628 3553 
L 2631 2963 
z
" id="DejaVuSans-72" transform="scale(0.015625)"/>
       <path d="M 3597 1894 
L 3597 1613 
L 953 1613 
Q 991 1019 1311 708 
Q 1631 397 2203 397 
Q 2534 397 2845 478 
Q 3156 559 3463 722 
L 3463 178 
Q 3153 47 2828 -22 
Q 2503 -91 2169 -91 
Q 1331 -91 842 396 
Q 353 884 353 1716 
Q 353 2575 817 3079 
Q 1281 3584 2069 3584 
Q 2775 3584 3186 3129 
Q 3597 2675 3597 1894 
z
M 3022 2063 
Q 3016 2534 2758 2815 
Q 2500 3097 2075 3097 
Q 1594 3097 1305 2825 
Q 1016 2553 972 2059 
L 3022 2063 
z
" id="DejaVuSans-65" transform="scale(0.015625)"/>
      </defs>
      <use xlink:href="#DejaVuSans-53"/>
      <use x="63.476562" xlink:href="#DejaVuSans-6d"/>
      <use x="160.888672" xlink:href="#DejaVuSans-69"/>
      <use x="188.671875" xlink:href="#DejaVuSans-6e"/>
      <use x="252.050781" xlink:href="#DejaVuSans-61"/>
      <use x="313.330078" xlink:href="#DejaVuSans-20"/>
      <use x="345.117188" xlink:href="#DejaVuSans-53"/>
      <use x="408.59375" xlink:href="#DejaVuSans-63"/>
      <use x="463.574219" xlink:href="#DejaVuSans-6f"/>
      <use x="524.755859" xlink:href="#DejaVuSans-72"/>
      <use x="563.619141" xlink:href="#DejaVuSans-65"/>
     </g>
    </g>
    <g id="line2d_21">
     <path d="M 99 88.256563 
L 119 88.256563 
" style="fill:none;stroke:#ff7f0e;stroke-linecap:square;stroke-width:1.5;"/>
    </g>
    <g id="line2d_22"/>
    <g id="text_14">
     <!-- RFScore -->
     <g transform="translate(127 91.756563)scale(0.1 -0.1)">
      <defs>
       <path d="M 2841 2188 
Q 3044 2119 3236 1894 
Q 3428 1669 3622 1275 
L 4263 0 
L 3584 0 
L 2988 1197 
Q 2756 1666 2539 1819 
Q 2322 1972 1947 1972 
L 1259 1972 
L 1259 0 
L 628 0 
L 628 4666 
L 2053 4666 
Q 2853 4666 3247 4331 
Q 3641 3997 3641 3322 
Q 3641 2881 3436 2590 
Q 3231 2300 2841 2188 
z
M 1259 4147 
L 1259 2491 
L 2053 2491 
Q 2509 2491 2742 2702 
Q 2975 2913 2975 3322 
Q 2975 3731 2742 3939 
Q 2509 4147 2053 4147 
L 1259 4147 
z
" id="DejaVuSans-52" transform="scale(0.015625)"/>
       <path d="M 628 4666 
L 3309 4666 
L 3309 4134 
L 1259 4134 
L 1259 2759 
L 3109 2759 
L 3109 2228 
L 1259 2228 
L 1259 0 
L 628 0 
L 628 4666 
z
" id="DejaVuSans-46" transform="scale(0.015625)"/>
      </defs>
      <use xlink:href="#DejaVuSans-52"/>
      <use x="69.482422" xlink:href="#DejaVuSans-46"/>
      <use x="125.251953" xlink:href="#DejaVuSans-53"/>
      <use x="188.728516" xlink:href="#DejaVuSans-63"/>
      <use x="243.708984" xlink:href="#DejaVuSans-6f"/>
      <use x="304.890625" xlink:href="#DejaVuSans-72"/>
      <use x="343.753906" xlink:href="#DejaVuSans-65"/>
     </g>
    </g>
    <g id="line2d_23">
     <path d="M 99 102.934688 
L 119 102.934688 
" style="fill:none;stroke:#2ca02c;stroke-linecap:square;stroke-width:1.5;"/>
    </g>
    <g id="line2d_24"/>
    <g id="text_15">
     <!-- PLECScore -->
     <g transform="translate(127 106.434688)scale(0.1 -0.1)">
      <defs>
       <path d="M 1259 4147 
L 1259 2394 
L 2053 2394 
Q 2494 2394 2734 2622 
Q 2975 2850 2975 3272 
Q 2975 3691 2734 3919 
Q 2494 4147 2053 4147 
L 1259 4147 
z
M 628 4666 
L 2053 4666 
Q 2838 4666 3239 4311 
Q 3641 3956 3641 3272 
Q 3641 2581 3239 2228 
Q 2838 1875 2053 1875 
L 1259 1875 
L 1259 0 
L 628 0 
L 628 4666 
z
" id="DejaVuSans-50" transform="scale(0.015625)"/>
       <path d="M 628 4666 
L 1259 4666 
L 1259 531 
L 3531 531 
L 3531 0 
L 628 0 
L 628 4666 
z
" id="DejaVuSans-4c" transform="scale(0.015625)"/>
       <path d="M 628 4666 
L 3578 4666 
L 3578 4134 
L 1259 4134 
L 1259 2753 
L 3481 2753 
L 3481 2222 
L 1259 2222 
L 1259 531 
L 3634 531 
L 3634 0 
L 628 0 
L 628 4666 
z
" id="DejaVuSans-45" transform="scale(0.015625)"/>
       <path d="M 4122 4306 
L 4122 3641 
Q 3803 3938 3442 4084 
Q 3081 4231 2675 4231 
Q 1875 4231 1450 3742 
Q 1025 3253 1025 2328 
Q 1025 1406 1450 917 
Q 1875 428 2675 428 
Q 3081 428 3442 575 
Q 3803 722 4122 1019 
L 4122 359 
Q 3791 134 3420 21 
Q 3050 -91 2638 -91 
Q 1578 -91 968 557 
Q 359 1206 359 2328 
Q 359 3453 968 4101 
Q 1578 4750 2638 4750 
Q 3056 4750 3426 4639 
Q 3797 4528 4122 4306 
z
" id="DejaVuSans-43" transform="scale(0.015625)"/>
      </defs>
      <use xlink:href="#DejaVuSans-50"/>
      <use x="60.302734" xlink:href="#DejaVuSans-4c"/>
      <use x="116.015625" xlink:href="#DejaVuSans-45"/>
      <use x="179.199219" xlink:href="#DejaVuSans-43"/>
      <use x="249.023438" xlink:href="#DejaVuSans-53"/>
      <use x="312.5" xlink:href="#DejaVuSans-63"/>
      <use x="367.480469" xlink:href="#DejaVuSans-6f"/>
      <use x="428.662109" xlink:href="#DejaVuSans-72"/>
      <use x="467.525391" xlink:href="#DejaVuSans-65"/>
     </g>
    </g>
    <g id="line2d_25">
     <path d="M 99 117.612813 
L 119 117.612813 
" style="fill:none;stroke:#d62728;stroke-linecap:square;stroke-width:1.5;"/>
    </g>
    <g id="line2d_26"/>
    <g id="text_16">
     <!-- NNSCore -->
     <g transform="translate(127 121.112813)scale(0.1 -0.1)">
      <defs>
       <path d="M 628 4666 
L 1478 4666 
L 3547 763 
L 3547 4666 
L 4159 4666 
L 4159 0 
L 3309 0 
L 1241 3903 
L 1241 0 
L 628 0 
L 628 4666 
z
" id="DejaVuSans-4e" transform="scale(0.015625)"/>
      </defs>
      <use xlink:href="#DejaVuSans-4e"/>
      <use x="74.804688" xlink:href="#DejaVuSans-4e"/>
      <use x="149.609375" xlink:href="#DejaVuSans-53"/>
      <use x="213.085938" xlink:href="#DejaVuSans-43"/>
      <use x="282.910156" xlink:href="#DejaVuSans-6f"/>
      <use x="344.091797" xlink:href="#DejaVuSans-72"/>
      <use x="382.955078" xlink:href="#DejaVuSans-65"/>
     </g>
    </g>
    <g id="line2d_27">
     <path d="M 99 132.290938 
L 119 132.290938 
" style="fill:none;stroke:#9467bd;stroke-linecap:square;stroke-width:1.5;"/>
    </g>
    <g id="line2d_28"/>
    <g id="text_17">
     <!-- Feature Map Vector score -->
     <g transform="translate(127 135.790938)scale(0.1 -0.1)">
      <defs>
       <path d="M 1172 4494 
L 1172 3500 
L 2356 3500 
L 2356 3053 
L 1172 3053 
L 1172 1153 
Q 1172 725 1289 603 
Q 1406 481 1766 481 
L 2356 481 
L 2356 0 
L 1766 0 
Q 1100 0 847 248 
Q 594 497 594 1153 
L 594 3053 
L 172 3053 
L 172 3500 
L 594 3500 
L 594 4494 
L 1172 4494 
z
" id="DejaVuSans-74" transform="scale(0.015625)"/>
       <path d="M 544 1381 
L 544 3500 
L 1119 3500 
L 1119 1403 
Q 1119 906 1312 657 
Q 1506 409 1894 409 
Q 2359 409 2629 706 
Q 2900 1003 2900 1516 
L 2900 3500 
L 3475 3500 
L 3475 0 
L 2900 0 
L 2900 538 
Q 2691 219 2414 64 
Q 2138 -91 1772 -91 
Q 1169 -91 856 284 
Q 544 659 544 1381 
z
M 1991 3584 
L 1991 3584 
z
" id="DejaVuSans-75" transform="scale(0.015625)"/>
       <path d="M 628 4666 
L 1569 4666 
L 2759 1491 
L 3956 4666 
L 4897 4666 
L 4897 0 
L 4281 0 
L 4281 4097 
L 3078 897 
L 2444 897 
L 1241 4097 
L 1241 0 
L 628 0 
L 628 4666 
z
" id="DejaVuSans-4d" transform="scale(0.015625)"/>
       <path d="M 1159 525 
L 1159 -1331 
L 581 -1331 
L 581 3500 
L 1159 3500 
L 1159 2969 
Q 1341 3281 1617 3432 
Q 1894 3584 2278 3584 
Q 2916 3584 3314 3078 
Q 3713 2572 3713 1747 
Q 3713 922 3314 415 
Q 2916 -91 2278 -91 
Q 1894 -91 1617 61 
Q 1341 213 1159 525 
z
M 3116 1747 
Q 3116 2381 2855 2742 
Q 2594 3103 2138 3103 
Q 1681 3103 1420 2742 
Q 1159 2381 1159 1747 
Q 1159 1113 1420 752 
Q 1681 391 2138 391 
Q 2594 391 2855 752 
Q 3116 1113 3116 1747 
z
" id="DejaVuSans-70" transform="scale(0.015625)"/>
       <path d="M 1831 0 
L 50 4666 
L 709 4666 
L 2188 738 
L 3669 4666 
L 4325 4666 
L 2547 0 
L 1831 0 
z
" id="DejaVuSans-56" transform="scale(0.015625)"/>
       <path d="M 2834 3397 
L 2834 2853 
Q 2591 2978 2328 3040 
Q 2066 3103 1784 3103 
Q 1356 3103 1142 2972 
Q 928 2841 928 2578 
Q 928 2378 1081 2264 
Q 1234 2150 1697 2047 
L 1894 2003 
Q 2506 1872 2764 1633 
Q 3022 1394 3022 966 
Q 3022 478 2636 193 
Q 2250 -91 1575 -91 
Q 1294 -91 989 -36 
Q 684 19 347 128 
L 347 722 
Q 666 556 975 473 
Q 1284 391 1588 391 
Q 1994 391 2212 530 
Q 2431 669 2431 922 
Q 2431 1156 2273 1281 
Q 2116 1406 1581 1522 
L 1381 1569 
Q 847 1681 609 1914 
Q 372 2147 372 2553 
Q 372 3047 722 3315 
Q 1072 3584 1716 3584 
Q 2034 3584 2315 3537 
Q 2597 3491 2834 3397 
z
" id="DejaVuSans-73" transform="scale(0.015625)"/>
      </defs>
      <use xlink:href="#DejaVuSans-46"/>
      <use x="52.019531" xlink:href="#DejaVuSans-65"/>
      <use x="113.542969" xlink:href="#DejaVuSans-61"/>
      <use x="174.822266" xlink:href="#DejaVuSans-74"/>
      <use x="214.03125" xlink:href="#DejaVuSans-75"/>
      <use x="277.410156" xlink:href="#DejaVuSans-72"/>
      <use x="316.273438" xlink:href="#DejaVuSans-65"/>
      <use x="377.796875" xlink:href="#DejaVuSans-20"/>
      <use x="409.583984" xlink:href="#DejaVuSans-4d"/>
      <use x="495.863281" xlink:href="#DejaVuSans-61"/>
      <use x="557.142578" xlink:href="#DejaVuSans-70"/>
      <use x="620.619141" xlink:href="#DejaVuSans-20"/>
      <use x="652.40625" xlink:href="#DejaVuSans-56"/>
      <use x="713.064453" xlink:href="#DejaVuSans-65"/>
      <use x="774.587891" xlink:href="#DejaVuSans-63"/>
      <use x="829.568359" xlink:href="#DejaVuSans-74"/>
      <use x="868.777344" xlink:href="#DejaVuSans-6f"/>
      <use x="929.958984" xlink:href="#DejaVuSans-72"/>
      <use x="971.072266" xlink:href="#DejaVuSans-20"/>
      <use x="1002.859375" xlink:href="#DejaVuSans-73"/>
      <use x="1054.958984" xlink:href="#DejaVuSans-63"/>
      <use x="1109.939453" xlink:href="#DejaVuSans-6f"/>
      <use x="1171.121094" xlink:href="#DejaVuSans-72"/>
      <use x="1209.984375" xlink:href="#DejaVuSans-65"/>
     </g>
    </g>
    <g id="line2d_29">
     <path d="M 99 146.969063 
L 119 146.969063 
" style="fill:none;stroke:#8c564b;stroke-linecap:square;stroke-width:1.5;"/>
    </g>
    <g id="line2d_30"/>
    <g id="text_18">
     <!-- RF Score VS -->
     <g transform="translate(127 150.469063)scale(0.1 -0.1)">
      <use xlink:href="#DejaVuSans-52"/>
      <use x="69.482422" xlink:href="#DejaVuSans-46"/>
      <use x="127.001953" xlink:href="#DejaVuSans-20"/>
      <use x="158.789062" xlink:href="#DejaVuSans-53"/>
      <use x="222.265625" xlink:href="#DejaVuSans-63"/>
      <use x="277.246094" xlink:href="#DejaVuSans-6f"/>
      <use x="338.427734" xlink:href="#DejaVuSans-72"/>
      <use x="377.291016" xlink:href="#DejaVuSans-65"/>
      <use x="438.814453" xlink:href="#DejaVuSans-20"/>
      <use x="470.601562" xlink:href="#DejaVuSans-56"/>
      <use x="539.009766" xlink:href="#DejaVuSans-53"/>
     </g>
    </g>
   </g>
  </g>
 </g>
 <defs>
  <clipPath id="pe7b4b7b911">
   <rect height="380.52" width="558" x="90" y="60.48"/>
  </clipPath>
 </defs>
</svg>
